# MagicaVoxel @ Ephtracy

# group
o 

# material
mtllib Bible.mtl
usemtl palette

# normals
vn -1 0 0
vn 1 0 0
vn 0 0 1
vn 0 0 -1
vn 0 -1 0
vn 0 1 0

# texcoords
vt 0.0371094 0.5
vt 0.208984 0.5
vt 0.958984 0.5
vt 0.962891 0.5
vt 0.966797 0.5
vt 0.994141 0.5

# verts
v -0.9 0 1.8
v -0.9 0 -1.5
v -0.9 1 1.8
v -0.9 1 -1.5
v 0.7 0.4 1.8
v 0.7 0.4 1.7
v 0.7 0.7 1.8
v 0.7 0.7 1.7
v 0.8 0.3 1.8
v 0.8 0.3 1.7
v 0.8 0.4 1.8
v 0.8 0.4 1.7
v 0.8 0.4 -1.5
v 0.8 0.7 1.8
v 0.8 0.7 1.7
v 0.8 0.7 -1.5
v 0.8 0.8 1.8
v 0.8 0.8 1.7
v 0.9 0.2 1.8
v 0.9 0.2 1.7
v 0.9 0.3 1.8
v 0.9 0.3 1.7
v 0.9 0.3 -1.5
v 0.9 0.4 1.7
v 0.9 0.4 -1.5
v 0.9 0.7 1.7
v 0.9 0.7 -1.5
v 0.9 0.8 1.8
v 0.9 0.8 1.7
v 0.9 0.8 -1.5
v 0.9 0.9 1.8
v 0.9 0.9 1.7
v 1 0.1 1.8
v 1 0.1 1.7
v 1 0.2 1.8
v 1 0.2 1.7
v 1 0.2 -1.5
v 1 0.3 1.7
v 1 0.3 -1.5
v 1.1 0 1.8
v 1.1 0 -1.5
v 1.1 0.1 1.8
v 1.1 0.1 1.7
v 1.1 0.1 -1.5
v 1.1 0.2 1.7
v 1.1 0.2 -1.5
v 1.1 0.8 1.7
v 1.1 0.8 -1.5
v 1.1 0.9 1.8
v 1.1 0.9 1.7
v 1.1 0.9 -0.7
v 1.1 0.9 -1.1
v 1.1 0.9 -1.5
v 1.1 1 1.8
v 1.1 1 -0.7
v 1.1 1 -1.1
v 1.1 1 -1.5
v -0.9 0 1.8
v -0.9 1 1.8
v -0.8 0.1 1.8
v -0.8 0.2 1.8
v -0.8 0.4 1.8
v -0.8 0.6 1.8
v -0.8 0.8 1.8
v -0.8 0.9 1.8
v -0.7 0.2 1.8
v -0.7 0.3 1.8
v -0.7 0.7 1.8
v -0.7 0.8 1.8
v -0.6 0.3 1.8
v -0.6 0.4 1.8
v -0.6 0.6 1.8
v -0.6 0.7 1.8
v 0.7 0.4 1.8
v 0.7 0.7 1.8
v 0.8 0.3 1.8
v 0.8 0.4 1.8
v 0.8 0.7 1.8
v 0.8 0.8 1.8
v 0.9 0.2 1.8
v 0.9 0.3 1.8
v 0.9 0.8 1.8
v 0.9 0.9 1.8
v 1 0.1 1.8
v 1 0.2 1.8
v 1.1 0 1.8
v 1.1 0.1 1.8
v 1.1 0.9 1.8
v 1.1 1 1.8
v 0.7 0.4 1.7
v 0.7 0.7 1.7
v 0.8 0.3 1.7
v 0.8 0.4 1.7
v 0.8 0.7 1.7
v 0.8 0.8 1.7
v 0.9 0.2 1.7
v 0.9 0.3 1.7
v 0.9 0.4 1.7
v 0.9 0.7 1.7
v 0.9 0.8 1.7
v 0.9 0.9 1.7
v 1 0.1 1.7
v 1 0.2 1.7
v 1 0.3 1.7
v 1.1 0.1 1.7
v 1.1 0.2 1.7
v 1.1 0.8 1.7
v 1.1 0.9 1.7
v -0.9 0 -1.5
v -0.9 1 -1.5
v -0.8 0.8 -1.5
v -0.8 0.9 -1.5
v -0.7 0.1 -1.5
v -0.7 0.2 -1.5
v -0.7 0.3 -1.5
v -0.7 0.6 -1.5
v -0.7 0.7 -1.5
v -0.7 0.8 -1.5
v -0.6 0.2 -1.5
v -0.6 0.3 -1.5
v -0.6 0.6 -1.5
v -0.6 0.7 -1.5
v -0.5 0.3 -1.5
v -0.5 0.6 -1.5
v 0.8 0.4 -1.5
v 0.8 0.7 -1.5
v 0.9 0.3 -1.5
v 0.9 0.4 -1.5
v 0.9 0.7 -1.5
v 0.9 0.8 -1.5
v 1 0.2 -1.5
v 1 0.3 -1.5
v 1.1 0 -1.5
v 1.1 0.1 -1.5
v 1.1 0.2 -1.5
v 1.1 0.8 -1.5
v 1.1 0.9 -1.5
v 1.1 1 -1.5
v -0.9 0 1.8
v 1.1 0 1.8
v -0.9 0 -1.5
v 1.1 0 -1.5
v 0.7 0.7 1.8
v 0.8 0.7 1.8
v 0.7 0.7 1.7
v 0.8 0.7 1.7
v 0.9 0.7 1.7
v 0.8 0.7 -1.5
v 0.9 0.7 -1.5
v 0.8 0.8 1.8
v 0.9 0.8 1.8
v 0.8 0.8 1.7
v 0.9 0.8 1.7
v 1.1 0.8 1.7
v 0.9 0.8 -1.5
v 1.1 0.8 -1.5
v 0.9 0.9 1.8
v 1.1 0.9 1.8
v 0.9 0.9 1.7
v 1.1 0.9 1.7
v 1 0.1 1.8
v 1.1 0.1 1.8
v 1 0.1 1.7
v 1.1 0.1 1.7
v 0.9 0.2 1.8
v 1 0.2 1.8
v 0.9 0.2 1.7
v 1 0.2 1.7
v 1.1 0.2 1.7
v 1 0.2 -1.5
v 1.1 0.2 -1.5
v 0.8 0.3 1.8
v 0.9 0.3 1.8
v 0.8 0.3 1.7
v 0.9 0.3 1.7
v 1 0.3 1.7
v 0.9 0.3 -1.5
v 1 0.3 -1.5
v 0.7 0.4 1.8
v 0.8 0.4 1.8
v 0.7 0.4 1.7
v 0.8 0.4 1.7
v 0.9 0.4 1.7
v 0.8 0.4 -1.5
v 0.9 0.4 -1.5
v -0.9 1 1.8
v 1.1 1 1.8
v -0.2 1 1
v 0.2 1 1
v -0.2 1 0.5
v 0.2 1 0.5
v -0.8 1 0
v -0.5 1 0
v -0.4 1 0
v -0.3 1 0
v -0.2 1 0
v 0.1 1 0
v 0.2 1 0
v 0.4 1 0
v 0.5 1 0
v 0.6 1 0
v 0.7 1 0
v 0.8 1 0
v 0.9 1 0
v 1 1 0
v -0.7 1 -0.1
v -0.6 1 -0.1
v -0.1 1 -0.1
v 0 1 -0.1
v 0.3 1 -0.1
v 0.4 1 -0.1
v -0.7 1 -0.2
v -0.6 1 -0.2
v -0.5 1 -0.2
v -0.1 1 -0.2
v 0 1 -0.2
v 0.1 1 -0.2
v 0.8 1 -0.2
v 0.9 1 -0.2
v -0.7 1 -0.3
v -0.6 1 -0.3
v -0.5 1 -0.3
v -0.1 1 -0.3
v 0 1 -0.3
v 0.1 1 -0.3
v 0.8 1 -0.3
v 0.9 1 -0.3
v -0.7 1 -0.4
v -0.6 1 -0.4
v -0.1 1 -0.4
v 0 1 -0.4
v 0.8 1 -0.4
v 0.9 1 -0.4
v -0.8 1 -0.5
v -0.5 1 -0.5
v -0.4 1 -0.5
v -0.3 1 -0.5
v -0.2 1 -0.5
v 0.1 1 -0.5
v 0.2 1 -0.5
v 0.3 1 -0.5
v 0.5 1 -0.5
v 0.6 1 -0.5
v 0.7 1 -0.5
v 1 1 -0.5
v -0.8 1 -0.7
v -0.6 1 -0.7
v -0.5 1 -0.7
v -0.4 1 -0.7
v -0.3 1 -0.7
v -0.2 1 -0.7
v -0.1 1 -0.7
v 0 1 -0.7
v 0.2 1 -0.7
v 0.3 1 -0.7
v 0.5 1 -0.7
v 0.6 1 -0.7
v 0.8 1 -0.7
v 0.9 1 -0.7
v 1 1 -0.7
v 1.1 1 -0.7
v -0.8 1 -0.8
v -0.7 1 -0.8
v -0.4 1 -0.8
v -0.3 1 -0.8
v 0.1 1 -0.8
v 0.2 1 -0.8
v 0.9 1 -0.8
v 1 1 -0.8
v -0.8 1 -0.9
v -0.7 1 -0.9
v -0.6 1 -0.9
v -0.4 1 -0.9
v -0.3 1 -0.9
v 0 1 -0.9
v 0.1 1 -0.9
v 0.2 1 -0.9
v 0.9 1 -0.9
v 1 1 -0.9
v -0.7 1 -1
v -0.6 1 -1
v -0.4 1 -1
v -0.3 1 -1
v 0 1 -1
v 0.1 1 -1
v 0.4 1 -1
v 0.5 1 -1
v 0.6 1 -1
v 0.7 1 -1
v 0.9 1 -1
v 1 1 -1
v -0.8 1 -1.1
v -0.6 1 -1.1
v -0.5 1 -1.1
v -0.2 1 -1.1
v -0.1 1 -1.1
v 0 1 -1.1
v 0.2 1 -1.1
v 0.3 1 -1.1
v 0.4 1 -1.1
v 0.7 1 -1.1
v 0.8 1 -1.1
v 1.1 1 -1.1
v -0.9 1 -1.5
v 1.1 1 -1.5

# faces
f 3/6/1 2/6/1 1/6/1
f 4/6/1 2/6/1 3/6/1
f 5/1/2 6/1/2 7/1/2
f 7/1/2 6/1/2 8/1/2
f 9/1/2 10/1/2 11/1/2
f 11/1/2 10/1/2 12/1/2
f 12/1/2 13/1/2 15/1/2
f 15/1/2 13/1/2 16/1/2
f 14/1/2 15/1/2 17/1/2
f 17/1/2 15/1/2 18/1/2
f 19/1/2 20/1/2 21/1/2
f 21/1/2 20/1/2 22/1/2
f 22/1/2 23/1/2 24/1/2
f 24/1/2 23/1/2 25/1/2
f 26/1/2 27/1/2 29/1/2
f 29/1/2 27/1/2 30/1/2
f 28/1/2 29/1/2 31/1/2
f 31/1/2 29/1/2 32/1/2
f 33/1/2 34/1/2 35/1/2
f 35/1/2 34/1/2 36/1/2
f 36/1/2 37/1/2 38/1/2
f 38/1/2 37/1/2 39/1/2
f 40/6/2 41/6/2 42/6/2
f 42/6/2 41/6/2 43/6/2
f 43/6/2 41/6/2 44/6/2
f 43/1/2 44/1/2 45/1/2
f 45/1/2 44/1/2 46/1/2
f 47/1/2 48/1/2 50/1/2
f 50/1/2 48/1/2 51/1/2
f 51/1/2 48/1/2 52/1/2
f 52/1/2 48/1/2 53/1/2
f 49/6/2 50/6/2 54/6/2
f 50/6/2 51/6/2 54/6/2
f 51/2/2 52/2/2 55/2/2
f 54/6/2 51/6/2 55/6/2
f 52/6/2 53/6/2 56/6/2
f 55/2/2 52/2/2 56/2/2
f 56/6/2 53/6/2 57/6/2
f 60/6/3 59/6/3 58/6/3
f 61/6/3 59/6/3 60/6/3
f 62/6/3 59/6/3 61/6/3
f 63/6/3 59/6/3 62/6/3
f 64/6/3 59/6/3 63/6/3
f 65/6/3 59/6/3 64/6/3
f 66/1/3 61/1/3 60/1/3
f 66/6/3 62/6/3 61/6/3
f 67/6/3 62/6/3 66/6/3
f 68/6/3 64/6/3 63/6/3
f 69/1/3 65/1/3 64/1/3
f 69/6/3 64/6/3 68/6/3
f 70/6/3 62/6/3 67/6/3
f 70/1/3 67/1/3 66/1/3
f 71/5/3 63/5/3 62/5/3
f 71/6/3 62/6/3 70/6/3
f 72/6/3 68/6/3 63/6/3
f 72/5/3 63/5/3 71/5/3
f 73/1/3 69/1/3 68/1/3
f 73/6/3 68/6/3 72/6/3
f 74/1/3 71/1/3 70/1/3
f 74/1/3 72/1/3 71/1/3
f 74/1/3 73/1/3 72/1/3
f 75/1/3 69/1/3 73/1/3
f 75/1/3 73/1/3 74/1/3
f 76/1/3 74/1/3 70/1/3
f 76/1/3 70/1/3 66/1/3
f 77/1/3 74/1/3 76/1/3
f 78/1/3 69/1/3 75/1/3
f 79/1/3 65/1/3 69/1/3
f 79/1/3 69/1/3 78/1/3
f 80/1/3 66/1/3 60/1/3
f 80/1/3 76/1/3 66/1/3
f 81/1/3 76/1/3 80/1/3
f 82/1/3 65/1/3 79/1/3
f 83/6/3 59/6/3 65/6/3
f 83/1/3 65/1/3 82/1/3
f 84/6/3 60/6/3 58/6/3
f 84/1/3 80/1/3 60/1/3
f 85/1/3 80/1/3 84/1/3
f 86/6/3 84/6/3 58/6/3
f 87/6/3 84/6/3 86/6/3
f 88/6/3 59/6/3 83/6/3
f 89/6/3 59/6/3 88/6/3
f 93/1/3 91/1/3 90/1/3
f 94/1/3 91/1/3 93/1/3
f 97/1/3 93/1/3 92/1/3
f 98/1/3 93/1/3 97/1/3
f 99/1/3 95/1/3 94/1/3
f 100/1/3 95/1/3 99/1/3
f 103/1/3 97/1/3 96/1/3
f 104/1/3 97/1/3 103/1/3
f 105/1/3 103/1/3 102/1/3
f 106/1/3 103/1/3 105/1/3
f 107/1/3 101/1/3 100/1/3
f 108/1/3 101/1/3 107/1/3
f 109/6/4 110/6/4 111/6/4
f 111/6/4 110/6/4 112/6/4
f 109/6/4 111/6/4 113/6/4
f 113/6/4 111/6/4 114/6/4
f 114/6/4 111/6/4 115/6/4
f 115/6/4 111/6/4 116/6/4
f 116/6/4 111/6/4 117/6/4
f 111/1/4 112/1/4 118/1/4
f 117/6/4 111/6/4 118/6/4
f 113/1/4 114/1/4 119/1/4
f 114/6/4 115/6/4 119/6/4
f 115/4/4 116/4/4 120/4/4
f 119/6/4 115/6/4 120/6/4
f 116/6/4 117/6/4 121/6/4
f 120/4/4 116/4/4 121/4/4
f 117/1/4 118/1/4 122/1/4
f 121/6/4 117/6/4 122/6/4
f 119/1/4 120/1/4 123/1/4
f 120/4/4 121/4/4 123/4/4
f 121/1/4 122/1/4 124/1/4
f 123/4/4 121/4/4 124/4/4
f 123/1/4 124/1/4 125/1/4
f 122/1/4 118/1/4 126/1/4
f 125/1/4 124/1/4 126/1/4
f 124/1/4 122/1/4 126/1/4
f 123/1/4 125/1/4 127/1/4
f 119/1/4 123/1/4 127/1/4
f 127/1/4 125/1/4 128/1/4
f 126/1/4 118/1/4 129/1/4
f 118/1/4 112/1/4 130/1/4
f 129/1/4 118/1/4 130/1/4
f 113/1/4 119/1/4 131/1/4
f 119/1/4 127/1/4 131/1/4
f 131/1/4 127/1/4 132/1/4
f 109/6/4 113/6/4 133/6/4
f 113/1/4 131/1/4 134/1/4
f 133/6/4 113/6/4 134/6/4
f 134/1/4 131/1/4 135/1/4
f 130/1/4 112/1/4 136/1/4
f 112/6/4 110/6/4 137/6/4
f 136/1/4 112/1/4 137/1/4
f 137/6/4 110/6/4 138/6/4
f 141/6/5 140/6/5 139/6/5
f 142/6/5 140/6/5 141/6/5
f 145/1/5 144/1/5 143/1/5
f 146/1/5 144/1/5 145/1/5
f 148/1/5 147/1/5 146/1/5
f 149/1/5 147/1/5 148/1/5
f 152/1/5 151/1/5 150/1/5
f 153/1/5 151/1/5 152/1/5
f 155/1/5 154/1/5 153/1/5
f 156/1/5 154/1/5 155/1/5
f 159/6/5 158/6/5 157/6/5
f 160/6/5 158/6/5 159/6/5
f 161/6/6 162/6/6 163/6/6
f 163/6/6 162/6/6 164/6/6
f 165/1/6 166/1/6 167/1/6
f 167/1/6 166/1/6 168/1/6
f 168/1/6 169/1/6 170/1/6
f 170/1/6 169/1/6 171/1/6
f 172/1/6 173/1/6 174/1/6
f 174/1/6 173/1/6 175/1/6
f 175/1/6 176/1/6 177/1/6
f 177/1/6 176/1/6 178/1/6
f 179/1/6 180/1/6 181/1/6
f 181/1/6 180/1/6 182/1/6
f 182/1/6 183/1/6 184/1/6
f 184/1/6 183/1/6 185/1/6
f 186/6/6 187/6/6 188/6/6
f 188/6/6 187/6/6 189/6/6
f 186/6/6 188/6/6 190/6/6
f 188/2/6 189/2/6 190/2/6
f 189/6/6 187/6/6 191/6/6
f 190/2/6 189/2/6 191/2/6
f 186/6/6 190/6/6 192/6/6
f 190/6/6 191/6/6 192/6/6
f 192/6/6 191/6/6 193/6/6
f 193/6/6 191/6/6 194/6/6
f 194/6/6 191/6/6 195/6/6
f 195/6/6 191/6/6 196/6/6
f 196/6/6 191/6/6 197/6/6
f 191/6/6 187/6/6 198/6/6
f 197/6/6 191/6/6 198/6/6
f 198/6/6 187/6/6 199/6/6
f 199/6/6 187/6/6 200/6/6
f 200/6/6 187/6/6 201/6/6
f 201/6/6 187/6/6 202/6/6
f 202/6/6 187/6/6 203/6/6
f 203/6/6 187/6/6 204/6/6
f 204/6/6 187/6/6 205/6/6
f 192/2/6 193/2/6 206/2/6
f 206/2/6 193/2/6 207/2/6
f 196/2/6 197/2/6 208/2/6
f 208/2/6 197/2/6 209/2/6
f 198/2/6 199/2/6 210/2/6
f 199/6/6 200/6/6 211/6/6
f 210/2/6 199/2/6 211/2/6
f 192/2/6 206/2/6 212/2/6
f 206/6/6 207/6/6 212/6/6
f 207/2/6 193/2/6 213/2/6
f 212/6/6 207/6/6 213/6/6
f 193/6/6 194/6/6 214/6/6
f 213/2/6 193/2/6 214/2/6
f 196/2/6 208/2/6 215/2/6
f 208/6/6 209/6/6 215/6/6
f 209/2/6 197/2/6 216/2/6
f 215/6/6 209/6/6 216/6/6
f 197/6/6 198/6/6 217/6/6
f 216/2/6 197/2/6 217/2/6
f 202/2/6 203/2/6 218/2/6
f 203/6/6 204/6/6 218/6/6
f 204/2/6 205/2/6 219/2/6
f 218/6/6 204/6/6 219/6/6
f 192/2/6 212/2/6 220/2/6
f 212/2/6 213/2/6 220/2/6
f 213/6/6 214/6/6 221/6/6
f 220/2/6 213/2/6 221/2/6
f 214/6/6 194/6/6 222/6/6
f 221/6/6 214/6/6 222/6/6
f 215/2/6 216/2/6 223/2/6
f 196/2/6 215/2/6 223/2/6
f 216/6/6 217/6/6 224/6/6
f 223/2/6 216/2/6 224/2/6
f 217/6/6 198/6/6 225/6/6
f 224/6/6 217/6/6 225/6/6
f 218/2/6 219/2/6 226/2/6
f 202/2/6 218/2/6 226/2/6
f 219/2/6 205/2/6 227/2/6
f 226/2/6 219/2/6 227/2/6
f 220/6/6 221/6/6 228/6/6
f 192/2/6 220/2/6 228/2/6
f 221/2/6 222/2/6 229/2/6
f 228/6/6 221/6/6 229/6/6
f 223/6/6 224/6/6 230/6/6
f 196/2/6 223/2/6 230/2/6
f 224/2/6 225/2/6 231/2/6
f 230/6/6 224/6/6 231/6/6
f 202/2/6 226/2/6 232/2/6
f 226/6/6 227/6/6 232/6/6
f 227/2/6 205/2/6 233/2/6
f 232/6/6 227/6/6 233/6/6
f 186/6/6 192/6/6 234/6/6
f 192/2/6 228/2/6 234/2/6
f 228/2/6 229/2/6 234/2/6
f 222/6/6 194/6/6 235/6/6
f 234/2/6 229/2/6 235/2/6
f 229/2/6 222/2/6 235/2/6
f 194/2/6 195/2/6 236/2/6
f 235/6/6 194/6/6 236/6/6
f 195/6/6 196/6/6 237/6/6
f 236/2/6 195/2/6 237/2/6
f 230/2/6 231/2/6 238/2/6
f 237/6/6 196/6/6 238/6/6
f 196/2/6 230/2/6 238/2/6
f 231/2/6 225/2/6 239/2/6
f 238/2/6 231/2/6 239/2/6
f 225/6/6 198/6/6 239/6/6
f 198/2/6 210/2/6 240/2/6
f 239/6/6 198/6/6 240/6/6
f 210/6/6 211/6/6 241/6/6
f 240/2/6 210/2/6 241/2/6
f 211/6/6 200/6/6 242/6/6
f 241/6/6 211/6/6 242/6/6
f 200/2/6 201/2/6 242/2/6
f 201/6/6 202/6/6 243/6/6
f 242/2/6 201/2/6 243/2/6
f 232/2/6 233/2/6 244/2/6
f 243/6/6 202/6/6 244/6/6
f 202/2/6 232/2/6 244/2/6
f 233/2/6 205/2/6 245/2/6
f 244/2/6 233/2/6 245/2/6
f 205/6/6 187/6/6 245/6/6
f 237/6/6 238/6/6 246/6/6
f 243/6/6 244/6/6 246/6/6
f 244/6/6 245/6/6 246/6/6
f 241/6/6 242/6/6 246/6/6
f 239/6/6 240/6/6 246/6/6
f 238/6/6 239/6/6 246/6/6
f 242/6/6 243/6/6 246/6/6
f 186/6/6 234/6/6 246/6/6
f 235/6/6 236/6/6 246/6/6
f 234/6/6 235/6/6 246/6/6
f 240/6/6 241/6/6 246/6/6
f 236/6/6 237/6/6 246/6/6
f 246/6/6 245/6/6 247/6/6
f 247/6/6 245/6/6 248/6/6
f 248/6/6 245/6/6 249/6/6
f 249/6/6 245/6/6 250/6/6
f 250/6/6 245/6/6 251/6/6
f 251/6/6 245/6/6 252/6/6
f 252/6/6 245/6/6 253/6/6
f 253/6/6 245/6/6 254/6/6
f 254/6/6 245/6/6 255/6/6
f 255/6/6 245/6/6 256/6/6
f 256/6/6 245/6/6 257/6/6
f 257/6/6 245/6/6 258/6/6
f 258/6/6 245/6/6 259/6/6
f 245/6/6 187/6/6 260/6/6
f 259/6/6 245/6/6 260/6/6
f 260/6/6 187/6/6 261/6/6
f 186/6/6 246/6/6 262/6/6
f 246/2/6 247/2/6 262/2/6
f 262/2/6 247/2/6 263/2/6
f 248/2/6 249/2/6 264/2/6
f 249/6/6 250/6/6 264/6/6
f 250/2/6 251/2/6 265/2/6
f 264/6/6 250/6/6 265/6/6
f 253/6/6 254/6/6 266/6/6
f 254/2/6 255/2/6 267/2/6
f 266/6/6 254/6/6 267/6/6
f 258/2/6 259/2/6 268/2/6
f 259/6/6 260/6/6 268/6/6
f 260/2/6 261/2/6 269/2/6
f 268/6/6 260/6/6 269/6/6
f 262/6/6 263/6/6 270/6/6
f 186/6/6 262/6/6 270/6/6
f 263/2/6 247/2/6 271/2/6
f 270/6/6 263/6/6 271/6/6
f 247/6/6 248/6/6 272/6/6
f 271/2/6 247/2/6 272/2/6
f 248/2/6 264/2/6 273/2/6
f 264/2/6 265/2/6 273/2/6
f 265/2/6 251/2/6 274/2/6
f 273/2/6 265/2/6 274/2/6
f 252/2/6 253/2/6 275/2/6
f 253/6/6 266/6/6 275/6/6
f 266/2/6 267/2/6 276/2/6
f 275/6/6 266/6/6 276/6/6
f 267/2/6 255/2/6 277/2/6
f 276/2/6 267/2/6 277/2/6
f 258/2/6 268/2/6 278/2/6
f 268/2/6 269/2/6 278/2/6
f 269/2/6 261/2/6 279/2/6
f 278/2/6 269/2/6 279/2/6
f 270/2/6 271/2/6 280/2/6
f 271/6/6 272/6/6 280/6/6
f 272/6/6 248/6/6 281/6/6
f 280/6/6 272/6/6 281/6/6
f 248/2/6 273/2/6 282/2/6
f 273/6/6 274/6/6 282/6/6
f 274/2/6 251/2/6 283/2/6
f 282/6/6 274/6/6 283/6/6
f 275/2/6 276/2/6 284/2/6
f 252/2/6 275/2/6 284/2/6
f 276/6/6 277/6/6 285/6/6
f 284/2/6 276/2/6 285/2/6
f 255/6/6 256/6/6 286/6/6
f 256/2/6 257/2/6 287/2/6
f 286/6/6 256/6/6 287/6/6
f 257/6/6 258/6/6 288/6/6
f 287/2/6 257/2/6 288/2/6
f 288/6/6 258/6/6 289/6/6
f 258/2/6 278/2/6 290/2/6
f 278/6/6 279/6/6 290/6/6
f 279/2/6 261/2/6 291/2/6
f 290/6/6 279/6/6 291/6/6
f 186/6/6 270/6/6 292/6/6
f 270/2/6 280/2/6 292/2/6
f 280/2/6 281/2/6 292/2/6
f 281/6/6 248/6/6 293/6/6
f 292/2/6 281/2/6 293/2/6
f 248/2/6 282/2/6 294/2/6
f 293/6/6 248/6/6 294/6/6
f 282/2/6 283/2/6 294/2/6
f 283/2/6 251/2/6 295/2/6
f 294/2/6 283/2/6 295/2/6
f 251/6/6 252/6/6 295/6/6
f 252/2/6 284/2/6 296/2/6
f 295/6/6 252/6/6 296/6/6
f 284/6/6 285/6/6 297/6/6
f 296/2/6 284/2/6 297/2/6
f 277/2/6 255/2/6 298/2/6
f 297/6/6 285/6/6 298/6/6
f 285/6/6 277/6/6 298/6/6
f 255/6/6 286/6/6 299/6/6
f 298/2/6 255/2/6 299/2/6
f 288/2/6 289/2/6 300/2/6
f 299/6/6 286/6/6 300/6/6
f 287/2/6 288/2/6 300/2/6
f 286/2/6 287/2/6 300/2/6
f 289/6/6 258/6/6 301/6/6
f 300/2/6 289/2/6 301/2/6
f 258/2/6 290/2/6 302/2/6
f 301/6/6 258/6/6 302/6/6
f 290/2/6 291/2/6 302/2/6
f 291/2/6 261/2/6 303/2/6
f 302/2/6 291/2/6 303/2/6
f 293/6/6 294/6/6 304/6/6
f 296/6/6 297/6/6 304/6/6
f 302/6/6 303/6/6 304/6/6
f 294/6/6 295/6/6 304/6/6
f 295/6/6 296/6/6 304/6/6
f 186/6/6 292/6/6 304/6/6
f 292/6/6 293/6/6 304/6/6
f 298/6/6 299/6/6 304/6/6
f 297/6/6 298/6/6 304/6/6
f 299/6/6 300/6/6 304/6/6
f 301/6/6 302/6/6 304/6/6
f 300/6/6 301/6/6 304/6/6
f 304/6/6 303/6/6 305/6/6
