# MagicaVoxel @ Ephtracy

# group
o 

# material
mtllib Calavera.mtl
usemtl palette

# normals
vn -1 0 0
vn 1 0 0
vn 0 0 1
vn 0 0 -1
vn 0 -1 0
vn 0 1 0

# texcoords
vt 0.958984 0.5
vt 0.970703 0.5
vt 0.974609 0.5
vt 0.982422 0.5
vt 0.994141 0.5

# verts
v -1 0.6 0.9
v -1 0.6 0.5
v -1 1.2 0.5
v -1 1.2 -0.5
v -1 1.6 -0.5
v -1 1.6 -0.9
v -1 1.9 0.9
v -1 1.9 -0.9
v -1 2 0.9
v -1 2 -0.9
v -1 2.3 0.9
v -1 2.3 -0.9
v -1 2.4 0.9
v -1 2.4 -0.9
v -1 2.5 0.9
v -1 2.5 -0.9
v -0.9 2.5 0.9
v -0.9 2.5 -0.9
v -0.9 2.6 0.9
v -0.9 2.6 -0.9
v -0.8 0.6 0.9
v -0.8 0.6 0.8
v -0.8 0.7 0.9
v -0.8 0.7 0.8
v -0.8 1 0.9
v -0.8 1 0.8
v -0.7 1.2 -0.5
v -0.7 1.2 -0.8
v -0.7 1.3 -0.8
v -0.7 1.3 -0.9
v -0.7 1.6 -0.5
v -0.7 1.6 -0.9
v -0.4 0.6 0.9
v -0.4 0.6 0.8
v -0.4 0.7 0.9
v -0.4 0.7 0.8
v -0.4 1 0.9
v -0.4 1 0.8
v -0.2 1.6 0.9
v -0.2 1.6 0.7
v -0.2 2.3 0.9
v -0.2 2.3 0.7
v 0 0.6 0.9
v 0 0.6 0.8
v 0 0.7 0.9
v 0 0.7 0.8
v 0 1 0.9
v 0 1 0.8
v 0.4 0.6 0.9
v 0.4 0.6 0.8
v 0.4 0.7 0.9
v 0.4 0.7 0.8
v 0.4 1 0.9
v 0.4 1 0.8
v 0.6 1.6 0.9
v 0.6 1.6 0.7
v 0.6 2.3 0.9
v 0.6 2.3 0.7
v 0.8 0.6 0.9
v 0.8 0.6 0.8
v 0.8 1 0.9
v 0.8 1 0.8
v -0.9 0.6 0.9
v -0.9 0.6 0.8
v -0.9 1 0.9
v -0.9 1 0.8
v -0.7 1.6 0.9
v -0.7 1.6 0.7
v -0.7 2.3 0.9
v -0.7 2.3 0.7
v -0.5 0.6 0.9
v -0.5 0.6 0.8
v -0.5 0.7 0.9
v -0.5 0.7 0.8
v -0.5 1 0.9
v -0.5 1 0.8
v -0.1 0.6 0.9
v -0.1 0.6 0.8
v -0.1 0.7 0.9
v -0.1 0.7 0.8
v -0.1 1 0.9
v -0.1 1 0.8
v 0.1 1.6 0.9
v 0.1 1.6 0.7
v 0.1 2.3 0.9
v 0.1 2.3 0.7
v 0.3 0.6 0.9
v 0.3 0.6 0.8
v 0.3 0.7 0.9
v 0.3 0.7 0.8
v 0.3 1 0.9
v 0.3 1 0.8
v 0.5 1.2 -0.5
v 0.5 1.2 -0.8
v 0.5 1.3 -0.8
v 0.5 1.3 -0.9
v 0.5 1.6 -0.5
v 0.5 1.6 -0.9
v 0.7 0.6 0.9
v 0.7 0.6 0.8
v 0.7 0.7 0.9
v 0.7 0.7 0.8
v 0.7 1 0.9
v 0.7 1 0.8
v 0.8 2.5 0.9
v 0.8 2.5 -0.9
v 0.8 2.6 0.9
v 0.8 2.6 -0.9
v 0.9 0.6 0.9
v 0.9 0.6 0.8
v 0.9 0.6 0.7
v 0.9 0.6 0.5
v 0.9 1.2 0.5
v 0.9 1.2 -0.5
v 0.9 1.4 0.7
v 0.9 1.4 -0.5
v 0.9 1.5 0.7
v 0.9 1.5 -0.5
v 0.9 1.6 -0.5
v 0.9 1.6 -0.9
v 0.9 1.9 0.7
v 0.9 1.9 -0.9
v 0.9 2 0.7
v 0.9 2 -0.9
v 0.9 2.3 0.7
v 0.9 2.3 -0.9
v 0.9 2.4 0.8
v 0.9 2.4 -0.9
v 0.9 2.5 0.9
v 0.9 2.5 -0.9
v -1 0.6 0.9
v -1 1.9 0.9
v -1 2 0.9
v -1 2.3 0.9
v -1 2.4 0.9
v -1 2.5 0.9
v -0.9 0.6 0.9
v -0.9 1 0.9
v -0.9 1.5 0.9
v -0.9 1.9 0.9
v -0.9 2 0.9
v -0.9 2.3 0.9
v -0.9 2.5 0.9
v -0.9 2.6 0.9
v -0.8 0.6 0.9
v -0.8 0.7 0.9
v -0.8 1 0.9
v -0.8 1.4 0.9
v -0.8 1.5 0.9
v -0.8 2.4 0.9
v -0.8 2.5 0.9
v -0.7 0.9 0.9
v -0.7 1.4 0.9
v -0.7 1.6 0.9
v -0.7 2.3 0.9
v -0.7 2.4 0.9
v -0.7 2.5 0.9
v -0.7 2.6 0.9
v -0.6 0.9 0.9
v -0.6 1.4 0.9
v -0.5 0.6 0.9
v -0.5 0.7 0.9
v -0.5 1 0.9
v -0.4 0.6 0.9
v -0.4 0.7 0.9
v -0.4 1 0.9
v -0.3 0.9 0.9
v -0.3 1.4 0.9
v -0.2 0.9 0.9
v -0.2 1.4 0.9
v -0.2 1.6 0.9
v -0.2 2.3 0.9
v -0.1 0.6 0.9
v -0.1 0.7 0.9
v -0.1 1 0.9
v -0.1 1.4 0.9
v -0.1 1.5 0.9
v -0.1 2.5 0.9
v 0 0.6 0.9
v 0 0.7 0.9
v 0 1 0.9
v 0 1.4 0.9
v 0 1.5 0.9
v 0 2.5 0.9
v 0.1 0.9 0.9
v 0.1 1.4 0.9
v 0.1 1.6 0.9
v 0.1 2.3 0.9
v 0.2 0.9 0.9
v 0.2 1.4 0.9
v 0.3 0.6 0.9
v 0.3 0.7 0.9
v 0.3 1 0.9
v 0.4 0.6 0.9
v 0.4 0.7 0.9
v 0.4 1 0.9
v 0.5 0.9 0.9
v 0.5 1.4 0.9
v 0.6 0.9 0.9
v 0.6 1.4 0.9
v 0.6 1.6 0.9
v 0.6 2.3 0.9
v 0.6 2.4 0.9
v 0.6 2.5 0.9
v 0.6 2.6 0.9
v 0.7 0.6 0.9
v 0.7 0.7 0.9
v 0.7 1 0.9
v 0.7 1.4 0.9
v 0.7 1.5 0.9
v 0.7 2.4 0.9
v 0.7 2.5 0.9
v 0.8 0.6 0.9
v 0.8 1 0.9
v 0.8 1.5 0.9
v 0.8 2.4 0.9
v 0.8 2.5 0.9
v 0.8 2.6 0.9
v 0.9 0.6 0.9
v 0.9 2.5 0.9
v -0.9 0.6 0.8
v -0.9 1 0.8
v -0.8 0.6 0.8
v -0.8 0.7 0.8
v -0.8 1 0.8
v -0.5 0.6 0.8
v -0.5 0.7 0.8
v -0.5 1 0.8
v -0.4 0.6 0.8
v -0.4 0.7 0.8
v -0.4 1 0.8
v -0.1 0.6 0.8
v -0.1 0.7 0.8
v -0.1 1 0.8
v 0 0.6 0.8
v 0 0.7 0.8
v 0 1 0.8
v 0.3 0.6 0.8
v 0.3 0.7 0.8
v 0.3 1 0.8
v 0.4 0.6 0.8
v 0.4 0.7 0.8
v 0.4 1 0.8
v 0.7 0.6 0.8
v 0.7 0.7 0.8
v 0.7 1 0.8
v 0.8 0.6 0.8
v 0.8 1 0.8
v -0.7 1.6 0.7
v -0.7 2.3 0.7
v -0.6 1.6 0.7
v -0.6 2.1 0.7
v -0.5 1.6 0.7
v -0.5 1.9 0.7
v -0.4 1.6 0.7
v -0.4 1.9 0.7
v -0.3 1.6 0.7
v -0.3 2.1 0.7
v -0.2 1.6 0.7
v -0.2 2.3 0.7
v 0.1 1.6 0.7
v 0.1 2.3 0.7
v 0.2 1.6 0.7
v 0.2 2.1 0.7
v 0.3 1.6 0.7
v 0.3 1.9 0.7
v 0.4 1.6 0.7
v 0.4 1.9 0.7
v 0.5 1.6 0.7
v 0.5 2.1 0.7
v 0.6 1.6 0.7
v 0.6 2.3 0.7
v -1 0.6 0.5
v -1 1.2 0.5
v 0.9 0.6 0.5
v 0.9 1.2 0.5
v -1 1.2 -0.5
v -1 1.6 -0.5
v -0.7 1.2 -0.5
v -0.7 1.6 -0.5
v 0.5 1.2 -0.5
v 0.5 1.6 -0.5
v 0.8 1.4 -0.5
v 0.8 1.5 -0.5
v 0.9 1.2 -0.5
v 0.9 1.4 -0.5
v 0.9 1.5 -0.5
v 0.9 1.6 -0.5
v -0.7 1.2 -0.8
v -0.7 1.3 -0.8
v 0.5 1.2 -0.8
v 0.5 1.3 -0.8
v -1 1.6 -0.9
v -1 1.9 -0.9
v -1 2 -0.9
v -1 2.3 -0.9
v -1 2.4 -0.9
v -1 2.5 -0.9
v -0.9 2.5 -0.9
v -0.9 2.6 -0.9
v -0.7 1.3 -0.9
v -0.7 1.6 -0.9
v -0.1 2.4 -0.9
v -0.1 2.6 -0.9
v 0 2.4 -0.9
v 0 2.6 -0.9
v 0.5 1.3 -0.9
v 0.5 1.6 -0.9
v 0.8 2.5 -0.9
v 0.8 2.6 -0.9
v 0.9 1.6 -0.9
v 0.9 1.9 -0.9
v 0.9 2 -0.9
v 0.9 2.3 -0.9
v 0.9 2.4 -0.9
v 0.9 2.5 -0.9
v -1 0.6 0.9
v -0.9 0.6 0.9
v -0.8 0.6 0.9
v -0.5 0.6 0.9
v -0.4 0.6 0.9
v -0.1 0.6 0.9
v 0 0.6 0.9
v 0.3 0.6 0.9
v 0.4 0.6 0.9
v 0.7 0.6 0.9
v 0.8 0.6 0.9
v 0.9 0.6 0.9
v -0.9 0.6 0.8
v -0.8 0.6 0.8
v -0.5 0.6 0.8
v -0.4 0.6 0.8
v -0.1 0.6 0.8
v 0 0.6 0.8
v 0.3 0.6 0.8
v 0.4 0.6 0.8
v 0.7 0.6 0.8
v 0.8 0.6 0.8
v 0.9 0.6 0.8
v -0.9 0.6 0.7
v -0.8 0.6 0.7
v -0.5 0.6 0.7
v -0.4 0.6 0.7
v -0.1 0.6 0.7
v 0 0.6 0.7
v 0.3 0.6 0.7
v 0.4 0.6 0.7
v 0.7 0.6 0.7
v 0.8 0.6 0.7
v 0.9 0.6 0.7
v -1 0.6 0.5
v 0.9 0.6 0.5
v -0.9 1 0.9
v -0.8 1 0.9
v -0.5 1 0.9
v -0.4 1 0.9
v -0.1 1 0.9
v 0 1 0.9
v 0.3 1 0.9
v 0.4 1 0.9
v 0.7 1 0.9
v 0.8 1 0.9
v -0.9 1 0.8
v -0.8 1 0.8
v -0.5 1 0.8
v -0.4 1 0.8
v -0.1 1 0.8
v 0 1 0.8
v 0.3 1 0.8
v 0.4 1 0.8
v 0.7 1 0.8
v 0.8 1 0.8
v -1 1.2 0.5
v 0.9 1.2 0.5
v -1 1.2 -0.5
v -0.7 1.2 -0.5
v 0.5 1.2 -0.5
v 0.9 1.2 -0.5
v -0.7 1.2 -0.8
v 0.5 1.2 -0.8
v -0.7 1.3 -0.8
v 0.5 1.3 -0.8
v -0.7 1.3 -0.9
v 0.5 1.3 -0.9
v -1 1.6 -0.5
v -0.7 1.6 -0.5
v 0.5 1.6 -0.5
v 0.9 1.6 -0.5
v -1 1.6 -0.9
v -0.7 1.6 -0.9
v 0.5 1.6 -0.9
v 0.9 1.6 -0.9
v -0.7 2.3 0.9
v -0.2 2.3 0.9
v 0.1 2.3 0.9
v 0.6 2.3 0.9
v -0.7 2.3 0.7
v -0.2 2.3 0.7
v 0.1 2.3 0.7
v 0.6 2.3 0.7
v -0.7 1.6 0.9
v -0.2 1.6 0.9
v 0.1 1.6 0.9
v 0.6 1.6 0.9
v -0.7 1.6 0.7
v -0.6 1.6 0.7
v -0.5 1.6 0.7
v -0.4 1.6 0.7
v -0.3 1.6 0.7
v -0.2 1.6 0.7
v 0.1 1.6 0.7
v 0.2 1.6 0.7
v 0.3 1.6 0.7
v 0.4 1.6 0.7
v 0.5 1.6 0.7
v 0.6 1.6 0.7
v -1 2.5 0.9
v -0.9 2.5 0.9
v 0.8 2.5 0.9
v 0.9 2.5 0.9
v -1 2.5 -0.9
v -0.9 2.5 -0.9
v 0.8 2.5 -0.9
v 0.9 2.5 -0.9
v -0.9 2.6 0.9
v -0.7 2.6 0.9
v 0.6 2.6 0.9
v 0.8 2.6 0.9
v -0.7 2.6 0.8
v -0.1 2.6 0.8
v 0 2.6 0.8
v 0.6 2.6 0.8
v -0.9 2.6 -0.9
v -0.1 2.6 -0.9
v 0 2.6 -0.9
v 0.8 2.6 -0.9

# faces
f 3/3/1 2/3/1 1/3/1
f 5/3/1 4/3/1 3/3/1
f 7/3/1 3/3/1 1/3/1
f 7/3/1 6/3/1 5/3/1
f 7/3/1 5/3/1 3/3/1
f 8/3/1 6/3/1 7/3/1
f 9/2/1 8/2/1 7/2/1
f 10/2/1 8/2/1 9/2/1
f 11/3/1 10/3/1 9/3/1
f 12/3/1 10/3/1 11/3/1
f 13/2/1 12/2/1 11/2/1
f 14/2/1 12/2/1 13/2/1
f 15/3/1 14/3/1 13/3/1
f 16/3/1 14/3/1 15/3/1
f 19/3/1 18/3/1 17/3/1
f 20/3/1 18/3/1 19/3/1
f 23/1/1 22/1/1 21/1/1
f 24/1/1 22/1/1 23/1/1
f 25/3/1 24/3/1 23/3/1
f 26/3/1 24/3/1 25/3/1
f 29/3/1 28/3/1 27/3/1
f 31/3/1 29/3/1 27/3/1
f 31/3/1 30/3/1 29/3/1
f 32/3/1 30/3/1 31/3/1
f 35/1/1 34/1/1 33/1/1
f 36/1/1 34/1/1 35/1/1
f 37/3/1 36/3/1 35/3/1
f 38/3/1 36/3/1 37/3/1
f 41/3/1 40/3/1 39/3/1
f 42/3/1 40/3/1 41/3/1
f 45/1/1 44/1/1 43/1/1
f 46/1/1 44/1/1 45/1/1
f 47/3/1 46/3/1 45/3/1
f 48/3/1 46/3/1 47/3/1
f 51/1/1 50/1/1 49/1/1
f 52/1/1 50/1/1 51/1/1
f 53/3/1 52/3/1 51/3/1
f 54/3/1 52/3/1 53/3/1
f 57/3/1 56/3/1 55/3/1
f 58/3/1 56/3/1 57/3/1
f 61/3/1 60/3/1 59/3/1
f 62/3/1 60/3/1 61/3/1
f 63/3/2 64/3/2 65/3/2
f 65/3/2 64/3/2 66/3/2
f 67/3/2 68/3/2 69/3/2
f 69/3/2 68/3/2 70/3/2
f 71/1/2 72/1/2 73/1/2
f 73/1/2 72/1/2 74/1/2
f 73/3/2 74/3/2 75/3/2
f 75/3/2 74/3/2 76/3/2
f 77/1/2 78/1/2 79/1/2
f 79/1/2 78/1/2 80/1/2
f 79/3/2 80/3/2 81/3/2
f 81/3/2 80/3/2 82/3/2
f 83/3/2 84/3/2 85/3/2
f 85/3/2 84/3/2 86/3/2
f 87/1/2 88/1/2 89/1/2
f 89/1/2 88/1/2 90/1/2
f 89/3/2 90/3/2 91/3/2
f 91/3/2 90/3/2 92/3/2
f 93/3/2 94/3/2 95/3/2
f 93/3/2 95/3/2 97/3/2
f 95/3/2 96/3/2 97/3/2
f 97/3/2 96/3/2 98/3/2
f 99/1/2 100/1/2 101/1/2
f 101/1/2 100/1/2 102/1/2
f 101/3/2 102/3/2 103/3/2
f 103/3/2 102/3/2 104/3/2
f 105/3/2 106/3/2 107/3/2
f 107/3/2 106/3/2 108/3/2
f 111/3/2 112/3/2 113/3/2
f 110/2/2 111/2/2 115/2/2
f 113/3/2 114/3/2 115/3/2
f 111/3/2 113/3/2 115/3/2
f 115/3/2 114/3/2 116/3/2
f 110/2/2 115/2/2 117/2/2
f 115/2/2 116/2/2 117/2/2
f 117/2/2 116/2/2 118/2/2
f 117/3/2 118/3/2 119/3/2
f 117/3/2 119/3/2 121/3/2
f 119/3/2 120/3/2 121/3/2
f 110/2/2 117/2/2 121/2/2
f 121/3/2 120/3/2 122/3/2
f 110/2/2 121/2/2 123/2/2
f 121/2/2 122/2/2 123/2/2
f 123/2/2 122/2/2 124/2/2
f 110/2/2 123/2/2 125/2/2
f 123/3/2 124/3/2 125/3/2
f 125/3/2 124/3/2 126/3/2
f 109/3/2 110/3/2 127/3/2
f 110/2/2 125/2/2 127/2/2
f 125/2/2 126/2/2 127/2/2
f 127/2/2 126/2/2 128/2/2
f 109/3/2 127/3/2 129/3/2
f 127/3/2 128/3/2 129/3/2
f 129/3/2 128/3/2 130/3/2
f 137/3/3 132/3/3 131/3/3
f 138/3/3 132/3/3 137/3/3
f 139/3/3 132/3/3 138/3/3
f 140/2/3 133/2/3 132/2/3
f 140/3/3 132/3/3 139/3/3
f 141/3/3 134/3/3 133/3/3
f 141/2/3 133/2/3 140/2/3
f 142/2/3 135/2/3 134/2/3
f 142/3/3 134/3/3 141/3/3
f 143/3/3 136/3/3 135/3/3
f 147/3/3 139/3/3 138/3/3
f 148/3/3 139/3/3 147/3/3
f 149/2/3 140/2/3 139/2/3
f 149/3/3 139/3/3 148/3/3
f 149/2/3 141/2/3 140/2/3
f 149/2/3 142/2/3 141/2/3
f 150/2/3 135/2/3 142/2/3
f 150/2/3 142/2/3 149/2/3
f 150/3/3 144/3/3 143/3/3
f 150/3/3 143/3/3 135/3/3
f 151/3/3 144/3/3 150/3/3
f 152/3/3 148/3/3 147/3/3
f 152/3/3 147/3/3 146/3/3
f 153/2/3 149/2/3 148/2/3
f 153/3/3 148/3/3 152/3/3
f 154/3/3 150/3/3 149/3/3
f 155/3/3 150/3/3 154/3/3
f 156/2/3 151/2/3 150/2/3
f 156/3/3 150/3/3 155/3/3
f 157/3/3 144/3/3 151/3/3
f 157/2/3 151/2/3 156/2/3
f 158/3/3 144/3/3 157/3/3
f 159/3/3 152/3/3 146/3/3
f 159/2/3 153/2/3 152/2/3
f 160/2/3 149/2/3 153/2/3
f 160/2/3 153/2/3 159/2/3
f 161/1/3 146/1/3 145/1/3
f 162/3/3 159/3/3 146/3/3
f 162/1/3 146/1/3 161/1/3
f 162/3/3 160/3/3 159/3/3
f 163/3/3 160/3/3 162/3/3
f 166/3/3 160/3/3 163/3/3
f 167/3/3 166/3/3 165/3/3
f 168/2/3 149/2/3 160/2/3
f 168/3/3 166/3/3 167/3/3
f 168/3/3 160/3/3 166/3/3
f 169/3/3 167/3/3 165/3/3
f 169/2/3 168/2/3 167/2/3
f 170/2/3 149/2/3 168/2/3
f 170/2/3 168/2/3 169/2/3
f 171/3/3 154/3/3 149/3/3
f 172/3/3 156/3/3 155/3/3
f 172/3/3 157/3/3 156/3/3
f 173/1/3 165/1/3 164/1/3
f 174/3/3 169/3/3 165/3/3
f 174/1/3 165/1/3 173/1/3
f 174/3/3 170/3/3 169/3/3
f 175/3/3 170/3/3 174/3/3
f 176/2/3 149/2/3 170/2/3
f 176/3/3 170/3/3 175/3/3
f 177/3/3 171/3/3 149/3/3
f 177/2/3 149/2/3 176/2/3
f 177/3/3 172/3/3 171/3/3
f 178/2/3 158/2/3 157/2/3
f 178/3/3 172/3/3 177/3/3
f 178/3/3 157/3/3 172/3/3
f 181/3/3 176/3/3 175/3/3
f 181/3/3 177/3/3 176/3/3
f 182/3/3 177/3/3 181/3/3
f 183/2/3 178/2/3 177/2/3
f 183/3/3 177/3/3 182/3/3
f 184/2/3 158/2/3 178/2/3
f 184/2/3 178/2/3 183/2/3
f 185/3/3 182/3/3 181/3/3
f 185/3/3 181/3/3 180/3/3
f 186/2/3 183/2/3 182/2/3
f 186/3/3 182/3/3 185/3/3
f 187/3/3 184/3/3 183/3/3
f 188/3/3 184/3/3 187/3/3
f 189/3/3 185/3/3 180/3/3
f 189/2/3 186/2/3 185/2/3
f 190/2/3 183/2/3 186/2/3
f 190/2/3 186/2/3 189/2/3
f 191/1/3 180/1/3 179/1/3
f 192/3/3 189/3/3 180/3/3
f 192/1/3 180/1/3 191/1/3
f 192/3/3 190/3/3 189/3/3
f 193/3/3 190/3/3 192/3/3
f 196/3/3 190/3/3 193/3/3
f 197/3/3 196/3/3 195/3/3
f 198/2/3 183/2/3 190/2/3
f 198/3/3 196/3/3 197/3/3
f 198/3/3 190/3/3 196/3/3
f 199/3/3 197/3/3 195/3/3
f 199/2/3 198/2/3 197/2/3
f 200/2/3 183/2/3 198/2/3
f 200/2/3 198/2/3 199/2/3
f 201/3/3 187/3/3 183/3/3
f 202/3/3 184/3/3 188/3/3
f 203/3/3 184/3/3 202/3/3
f 204/2/3 158/2/3 184/2/3
f 204/3/3 184/3/3 203/3/3
f 205/2/3 158/2/3 204/2/3
f 206/1/3 195/1/3 194/1/3
f 207/3/3 199/3/3 195/3/3
f 207/1/3 195/1/3 206/1/3
f 207/3/3 200/3/3 199/3/3
f 208/3/3 200/3/3 207/3/3
f 209/2/3 183/2/3 200/2/3
f 209/3/3 200/3/3 208/3/3
f 210/3/3 201/3/3 183/3/3
f 210/2/3 183/2/3 209/2/3
f 210/3/3 203/3/3 202/3/3
f 210/3/3 202/3/3 201/3/3
f 211/2/3 204/2/3 203/2/3
f 211/3/3 203/3/3 210/3/3
f 212/3/3 205/3/3 204/3/3
f 212/2/3 204/2/3 211/2/3
f 214/3/3 209/3/3 208/3/3
f 214/3/3 210/3/3 209/3/3
f 215/2/3 211/2/3 210/2/3
f 215/3/3 210/3/3 214/3/3
f 216/3/3 212/3/3 211/3/3
f 216/2/3 211/2/3 215/2/3
f 217/3/3 205/3/3 212/3/3
f 217/3/3 212/3/3 216/3/3
f 218/3/3 205/3/3 217/3/3
f 219/3/3 216/3/3 215/3/3
f 219/3/3 215/3/3 214/3/3
f 219/3/3 217/3/3 216/3/3
f 219/3/3 214/3/3 213/3/3
f 220/3/3 217/3/3 219/3/3
f 223/5/3 222/5/3 221/5/3
f 224/5/3 222/5/3 223/5/3
f 225/5/3 222/5/3 224/5/3
f 229/5/3 227/5/3 226/5/3
f 229/5/3 228/5/3 227/5/3
f 230/5/3 228/5/3 229/5/3
f 231/5/3 228/5/3 230/5/3
f 235/5/3 233/5/3 232/5/3
f 235/5/3 234/5/3 233/5/3
f 236/5/3 234/5/3 235/5/3
f 237/5/3 234/5/3 236/5/3
f 241/5/3 239/5/3 238/5/3
f 241/5/3 240/5/3 239/5/3
f 242/5/3 240/5/3 241/5/3
f 243/5/3 240/5/3 242/5/3
f 247/5/3 245/5/3 244/5/3
f 247/5/3 246/5/3 245/5/3
f 248/5/3 246/5/3 247/5/3
f 251/5/3 250/5/3 249/5/3
f 252/5/3 250/5/3 251/5/3
f 253/4/3 252/4/3 251/4/3
f 254/4/3 252/4/3 253/4/3
f 255/1/3 254/1/3 253/1/3
f 256/4/3 252/4/3 254/4/3
f 256/1/3 254/1/3 255/1/3
f 257/4/3 256/4/3 255/4/3
f 258/5/3 250/5/3 252/5/3
f 258/4/3 256/4/3 257/4/3
f 258/4/3 252/4/3 256/4/3
f 259/5/3 258/5/3 257/5/3
f 260/5/3 250/5/3 258/5/3
f 260/5/3 258/5/3 259/5/3
f 263/5/3 262/5/3 261/5/3
f 264/5/3 262/5/3 263/5/3
f 265/4/3 264/4/3 263/4/3
f 266/4/3 264/4/3 265/4/3
f 267/1/3 266/1/3 265/1/3
f 268/4/3 264/4/3 266/4/3
f 268/1/3 266/1/3 267/1/3
f 269/4/3 268/4/3 267/4/3
f 270/5/3 262/5/3 264/5/3
f 270/4/3 268/4/3 269/4/3
f 270/4/3 264/4/3 268/4/3
f 271/5/3 270/5/3 269/5/3
f 272/5/3 262/5/3 270/5/3
f 272/5/3 270/5/3 271/5/3
f 273/3/4 274/3/4 275/3/4
f 275/3/4 274/3/4 276/3/4
f 277/3/4 278/3/4 279/3/4
f 279/3/4 278/3/4 280/3/4
f 281/3/4 282/3/4 283/3/4
f 283/3/4 282/3/4 284/3/4
f 281/3/4 283/3/4 285/3/4
f 283/2/4 284/2/4 286/2/4
f 285/3/4 283/3/4 286/3/4
f 284/3/4 282/3/4 287/3/4
f 286/2/4 284/2/4 287/2/4
f 287/3/4 282/3/4 288/3/4
f 289/3/4 290/3/4 291/3/4
f 291/3/4 290/3/4 292/3/4
f 297/3/4 298/3/4 299/3/4
f 293/3/4 294/3/4 302/3/4
f 299/3/4 300/3/4 303/3/4
f 296/2/4 297/2/4 303/2/4
f 297/3/4 299/3/4 303/3/4
f 303/3/4 300/3/4 304/3/4
f 296/2/4 303/2/4 305/2/4
f 303/2/4 304/2/4 305/2/4
f 305/2/4 304/2/4 306/2/4
f 301/3/4 302/3/4 307/3/4
f 302/3/4 294/3/4 308/3/4
f 307/3/4 302/3/4 308/3/4
f 305/3/4 306/3/4 309/3/4
f 309/3/4 306/3/4 310/3/4
f 308/3/4 294/3/4 311/3/4
f 294/2/4 295/2/4 312/2/4
f 311/3/4 294/3/4 312/3/4
f 295/3/4 296/3/4 313/3/4
f 312/2/4 295/2/4 313/2/4
f 296/2/4 305/2/4 314/2/4
f 313/3/4 296/3/4 314/3/4
f 305/3/4 309/3/4 315/3/4
f 314/2/4 305/2/4 315/2/4
f 315/3/4 309/3/4 316/3/4
f 329/3/5 318/3/5 317/3/5
f 330/1/5 320/1/5 319/1/5
f 331/1/5 320/1/5 330/1/5
f 332/1/5 322/1/5 321/1/5
f 333/1/5 322/1/5 332/1/5
f 334/1/5 324/1/5 323/1/5
f 335/1/5 324/1/5 334/1/5
f 336/1/5 326/1/5 325/1/5
f 337/1/5 326/1/5 336/1/5
f 338/3/5 328/3/5 327/3/5
f 339/3/5 328/3/5 338/3/5
f 340/3/5 329/3/5 317/3/5
f 340/5/5 330/5/5 329/5/5
f 341/3/5 331/3/5 330/3/5
f 341/5/5 330/5/5 340/5/5
f 342/5/5 332/5/5 331/5/5
f 342/3/5 331/3/5 341/3/5
f 343/3/5 333/3/5 332/3/5
f 343/5/5 332/5/5 342/5/5
f 344/5/5 334/5/5 333/5/5
f 344/3/5 333/3/5 343/3/5
f 345/3/5 335/3/5 334/3/5
f 345/5/5 334/5/5 344/5/5
f 346/5/5 336/5/5 335/5/5
f 346/3/5 335/3/5 345/3/5
f 347/3/5 337/3/5 336/3/5
f 347/5/5 336/5/5 346/5/5
f 348/5/5 338/5/5 337/5/5
f 348/3/5 337/3/5 347/3/5
f 349/2/5 339/2/5 338/2/5
f 349/5/5 338/5/5 348/5/5
f 350/2/5 339/2/5 349/2/5
f 351/3/5 346/3/5 345/3/5
f 351/3/5 340/3/5 317/3/5
f 351/3/5 350/3/5 349/3/5
f 351/3/5 349/3/5 348/3/5
f 351/3/5 347/3/5 346/3/5
f 351/3/5 342/3/5 341/3/5
f 351/3/5 345/3/5 344/3/5
f 351/3/5 344/3/5 343/3/5
f 351/3/5 343/3/5 342/3/5
f 351/3/5 348/3/5 347/3/5
f 351/3/5 341/3/5 340/3/5
f 352/3/5 350/3/5 351/3/5
f 363/3/5 354/3/5 353/3/5
f 364/3/5 354/3/5 363/3/5
f 365/3/5 356/3/5 355/3/5
f 366/3/5 356/3/5 365/3/5
f 367/3/5 358/3/5 357/3/5
f 368/3/5 358/3/5 367/3/5
f 369/3/5 360/3/5 359/3/5
f 370/3/5 360/3/5 369/3/5
f 371/3/5 362/3/5 361/3/5
f 372/3/5 362/3/5 371/3/5
f 375/3/5 374/3/5 373/3/5
f 376/3/5 374/3/5 375/3/5
f 377/3/5 374/3/5 376/3/5
f 378/3/5 374/3/5 377/3/5
f 379/3/5 377/3/5 376/3/5
f 380/3/5 377/3/5 379/3/5
f 383/3/5 382/3/5 381/3/5
f 384/3/5 382/3/5 383/3/5
f 389/3/5 386/3/5 385/3/5
f 390/3/5 386/3/5 389/3/5
f 391/3/5 388/3/5 387/3/5
f 392/3/5 388/3/5 391/3/5
f 397/3/5 394/3/5 393/3/5
f 398/3/5 394/3/5 397/3/5
f 399/3/5 396/3/5 395/3/5
f 400/3/5 396/3/5 399/3/5
f 401/3/6 402/3/6 405/3/6
f 405/3/6 402/3/6 406/3/6
f 406/3/6 402/3/6 407/3/6
f 407/3/6 402/3/6 408/3/6
f 408/3/6 402/3/6 409/3/6
f 409/3/6 402/3/6 410/3/6
f 403/3/6 404/3/6 411/3/6
f 411/3/6 404/3/6 412/3/6
f 412/3/6 404/3/6 413/3/6
f 413/3/6 404/3/6 414/3/6
f 414/3/6 404/3/6 415/3/6
f 415/3/6 404/3/6 416/3/6
f 417/3/6 418/3/6 421/3/6
f 421/3/6 418/3/6 422/3/6
f 419/3/6 420/3/6 423/3/6
f 423/3/6 420/3/6 424/3/6
f 425/3/6 426/3/6 429/3/6
f 426/2/6 427/2/6 429/2/6
f 429/2/6 427/2/6 430/2/6
f 430/2/6 427/2/6 431/2/6
f 427/3/6 428/3/6 432/3/6
f 431/2/6 427/2/6 432/2/6
f 425/3/6 429/3/6 433/3/6
f 429/3/6 430/3/6 433/3/6
f 430/2/6 431/2/6 434/2/6
f 433/3/6 430/3/6 434/3/6
f 431/3/6 432/3/6 435/3/6
f 434/2/6 431/2/6 435/2/6
f 432/3/6 428/3/6 436/3/6
f 435/3/6 432/3/6 436/3/6
