# MagicaVoxel @ Ephtracy

# group
o 

# material
mtllib CruzCementerio.mtl
usemtl palette

# normals
vn -1 0 0
vn 1 0 0
vn 0 0 1
vn 0 0 -1
vn 0 -1 0
vn 0 1 0

# texcoords
vt 0.970703 0.5
vt 0.974609 0.5
vt 0.978516 0.5
vt 0.982422 0.5
vt 0.986328 0.5

# verts
v -1.2 0 1.2
v -1.2 0 -1.1
v -1.2 0.1 1.2
v -1.2 0.1 -1.1
v -1.1 3.1 0.0999999
v -1.1 3.1 -1.19209e-07
v -1.1 3.3 0.0999999
v -1.1 3.3 -1.19209e-07
v -1 0.5 1
v -1 0.5 -0.8
v -1 0.6 1
v -1 0.6 -0.8
v -0.9 0.1 0.9
v -0.9 0.1 -0.7
v -0.9 0.5 0.9
v -0.9 0.5 -0.7
v -0.9 3 0.2
v -0.9 3 -0.1
v -0.9 3.1 0.0999999
v -0.9 3.1 -1.19209e-07
v -0.9 3.3 0.0999999
v -0.9 3.3 -1.19209e-07
v -0.9 3.4 0.2
v -0.9 3.4 -0.1
v -0.8 1 0.8
v -0.8 1 -0.6
v -0.8 1.1 0.8
v -0.8 1.1 -0.6
v -0.7 0.5 0.7
v -0.7 0.5 -0.5
v -0.7 0.6 0.7
v -0.7 0.6 -0.5
v -0.7 1 0.7
v -0.7 1 -0.5
v -0.0999999 1.1 0.2
v -0.0999999 1.1 -0.1
v -0.0999999 3 0.2
v -0.0999999 3 -0.1
v -0.0999999 3.4 0.2
v -0.0999999 3.4 -0.1
v -0.0999999 4 0.2
v -0.0999999 4 -0.1
v 1.19209e-07 4 0.0999999
v 1.19209e-07 4 -1.19209e-07
v 1.19209e-07 4.2 0.0999999
v 1.19209e-07 4.2 -1.19209e-07
v 0.2 1.1 0.2
v 0.2 1.1 0.0999999
v 0.2 1.1 -1.19209e-07
v 0.2 1.1 -0.1
v 0.2 3.1 0.2
v 0.2 3.1 0.0999999
v 0.2 3.1 -1.19209e-07
v 0.2 3.1 -0.1
v 0.2 3.3 0.2
v 0.2 3.3 0.0999999
v 0.2 3.3 -1.19209e-07
v 0.2 3.3 -0.1
v 0.2 3.9 0.2
v 0.2 3.9 0.0999999
v 0.2 3.9 -1.19209e-07
v 0.2 3.9 -0.1
v 1 3.1 0.2
v 1 3.1 0.0999999
v 1 3.1 -1.19209e-07
v 1 3.1 -0.1
v 1 3.3 0.2
v 1 3.3 0.0999999
v 1 3.3 -1.19209e-07
v 1 3.3 -0.1
v -0.9 0.5 0.7
v -0.9 0.5 -0.5
v -0.9 0.6 0.7
v -0.9 0.6 -0.5
v -0.8 3.1 0.2
v -0.8 3.1 0.0999999
v -0.8 3.1 -1.19209e-07
v -0.8 3.1 -0.1
v -0.8 3.3 0.2
v -0.8 3.3 0.0999999
v -0.8 3.3 -1.19209e-07
v -0.8 3.3 -0.1
v 1.19209e-07 1.1 0.2
v 1.19209e-07 1.1 0.0999999
v 1.19209e-07 1.1 -1.19209e-07
v 1.19209e-07 1.1 -0.1
v 1.19209e-07 3.1 0.2
v 1.19209e-07 3.1 0.0999999
v 1.19209e-07 3.1 -1.19209e-07
v 1.19209e-07 3.1 -0.1
v 1.19209e-07 3.3 0.2
v 1.19209e-07 3.3 0.0999999
v 1.19209e-07 3.3 -1.19209e-07
v 1.19209e-07 3.3 -0.1
v 1.19209e-07 3.9 0.2
v 1.19209e-07 3.9 0.0999999
v 1.19209e-07 3.9 -1.19209e-07
v 1.19209e-07 3.9 -0.1
v 0.2 4 0.0999999
v 0.2 4 -1.19209e-07
v 0.2 4.2 0.0999999
v 0.2 4.2 -1.19209e-07
v 0.3 1.1 0.2
v 0.3 1.1 -0.1
v 0.3 3 0.2
v 0.3 3 -0.1
v 0.3 3.4 0.2
v 0.3 3.4 -0.1
v 0.3 4 0.2
v 0.3 4 -0.1
v 0.9 0.6 0.7
v 0.9 0.6 -0.5
v 0.9 1 0.7
v 0.9 1 -0.5
v 1 1 0.8
v 1 1 -0.6
v 1 1.1 0.8
v 1 1.1 -0.6
v 1.1 0.1 0.9
v 1.1 0.1 -0.7
v 1.1 0.5 0.9
v 1.1 0.5 -0.7
v 1.1 3 0.2
v 1.1 3 -0.1
v 1.1 3.1 0.0999999
v 1.1 3.1 -1.19209e-07
v 1.1 3.3 0.0999999
v 1.1 3.3 -1.19209e-07
v 1.1 3.4 0.2
v 1.1 3.4 -0.1
v 1.2 0.5 1
v 1.2 0.5 -0.8
v 1.2 0.6 1
v 1.2 0.6 -0.8
v 1.3 3.1 0.0999999
v 1.3 3.1 -1.19209e-07
v 1.3 3.3 0.0999999
v 1.3 3.3 -1.19209e-07
v 1.4 0 1.2
v 1.4 0 -1.1
v 1.4 0.1 1.2
v 1.4 0.1 -1.1
v -1.2 0 1.2
v -1.2 0.1 1.2
v 1.4 0 1.2
v 1.4 0.1 1.2
v -1 0.5 1
v -1 0.6 1
v 1.2 0.5 1
v 1.2 0.6 1
v -0.9 0.1 0.9
v -0.9 0.5 0.9
v 1.1 0.1 0.9
v 1.1 0.5 0.9
v -0.8 1 0.8
v -0.8 1.1 0.8
v 1 1 0.8
v 1 1.1 0.8
v -0.7 0.6 0.7
v -0.7 1 0.7
v 0.9 0.6 0.7
v 0.9 1 0.7
v -0.9 3 0.2
v -0.9 3.4 0.2
v -0.8 3.1 0.2
v -0.8 3.3 0.2
v -0.0999999 1.1 0.2
v -0.0999999 3 0.2
v -0.0999999 3.4 0.2
v -0.0999999 4 0.2
v 1.19209e-07 1.1 0.2
v 1.19209e-07 3.1 0.2
v 1.19209e-07 3.3 0.2
v 1.19209e-07 3.9 0.2
v 0.2 1.1 0.2
v 0.2 3.1 0.2
v 0.2 3.3 0.2
v 0.2 3.9 0.2
v 0.3 1.1 0.2
v 0.3 3 0.2
v 0.3 3.4 0.2
v 0.3 4 0.2
v 1 3.1 0.2
v 1 3.3 0.2
v 1.1 3 0.2
v 1.1 3.4 0.2
v -1.1 3.1 0.0999999
v -1.1 3.3 0.0999999
v -0.9 3.1 0.0999999
v -0.9 3.3 0.0999999
v -0.8 3.1 0.0999999
v -0.8 3.3 0.0999999
v 1.19209e-07 1.1 0.0999999
v 1.19209e-07 3.1 0.0999999
v 1.19209e-07 3.3 0.0999999
v 1.19209e-07 3.9 0.0999999
v 1.19209e-07 4 0.0999999
v 1.19209e-07 4.2 0.0999999
v 0.2 1.1 0.0999999
v 0.2 3.1 0.0999999
v 0.2 3.3 0.0999999
v 0.2 3.9 0.0999999
v 0.2 4 0.0999999
v 0.2 4.2 0.0999999
v 1 3.1 0.0999999
v 1 3.3 0.0999999
v 1.1 3.1 0.0999999
v 1.1 3.3 0.0999999
v 1.3 3.1 0.0999999
v 1.3 3.3 0.0999999
v -0.9 0.5 -0.5
v -0.9 0.6 -0.5
v -0.7 0.5 -0.5
v -0.7 0.6 -0.5
v -0.9 0.5 0.7
v -0.9 0.6 0.7
v -0.7 0.5 0.7
v -0.7 0.6 0.7
v -1.1 3.1 -1.19209e-07
v -1.1 3.3 -1.19209e-07
v -0.9 3.1 -1.19209e-07
v -0.9 3.3 -1.19209e-07
v -0.8 3.1 -1.19209e-07
v -0.8 3.3 -1.19209e-07
v 1.19209e-07 1.1 -1.19209e-07
v 1.19209e-07 3.1 -1.19209e-07
v 1.19209e-07 3.3 -1.19209e-07
v 1.19209e-07 3.9 -1.19209e-07
v 1.19209e-07 4 -1.19209e-07
v 1.19209e-07 4.2 -1.19209e-07
v 0.2 1.1 -1.19209e-07
v 0.2 3.1 -1.19209e-07
v 0.2 3.3 -1.19209e-07
v 0.2 3.9 -1.19209e-07
v 0.2 4 -1.19209e-07
v 0.2 4.2 -1.19209e-07
v 1 3.1 -1.19209e-07
v 1 3.3 -1.19209e-07
v 1.1 3.1 -1.19209e-07
v 1.1 3.3 -1.19209e-07
v 1.3 3.1 -1.19209e-07
v 1.3 3.3 -1.19209e-07
v -0.9 3 -0.1
v -0.9 3.4 -0.1
v -0.8 3.1 -0.1
v -0.8 3.3 -0.1
v -0.0999999 1.1 -0.1
v -0.0999999 3 -0.1
v -0.0999999 3.4 -0.1
v -0.0999999 4 -0.1
v 1.19209e-07 1.1 -0.1
v 1.19209e-07 3.1 -0.1
v 1.19209e-07 3.3 -0.1
v 1.19209e-07 3.9 -0.1
v 0.2 1.1 -0.1
v 0.2 3.1 -0.1
v 0.2 3.3 -0.1
v 0.2 3.9 -0.1
v 0.3 1.1 -0.1
v 0.3 3 -0.1
v 0.3 3.4 -0.1
v 0.3 4 -0.1
v 1 3.1 -0.1
v 1 3.3 -0.1
v 1.1 3 -0.1
v 1.1 3.4 -0.1
v -0.7 0.6 -0.5
v -0.7 1 -0.5
v 0.9 0.6 -0.5
v 0.9 1 -0.5
v -0.8 1 -0.6
v -0.8 1.1 -0.6
v 1 1 -0.6
v 1 1.1 -0.6
v -0.9 0.1 -0.7
v -0.9 0.5 -0.7
v 1.1 0.1 -0.7
v 1.1 0.5 -0.7
v -1 0.5 -0.8
v -1 0.6 -0.8
v 1.2 0.5 -0.8
v 1.2 0.6 -0.8
v -1.2 0 -1.1
v -1.2 0.1 -1.1
v 1.4 0 -1.1
v 1.4 0.1 -1.1
v -1.2 0 1.2
v 1.4 0 1.2
v -1.2 0 -1.1
v 1.4 0 -1.1
v -1 0.5 1
v 1.2 0.5 1
v -0.9 0.5 0.9
v 1.1 0.5 0.9
v -0.9 0.5 -0.7
v 1.1 0.5 -0.7
v -1 0.5 -0.8
v 1.2 0.5 -0.8
v -0.8 1 0.8
v 1 1 0.8
v -0.7 1 0.7
v 0.9 1 0.7
v -0.7 1 -0.5
v 0.9 1 -0.5
v -0.8 1 -0.6
v 1 1 -0.6
v -0.9 3 0.2
v -0.0999999 3 0.2
v 0.3 3 0.2
v 1.1 3 0.2
v -0.9 3 -0.1
v -0.0999999 3 -0.1
v 0.3 3 -0.1
v 1.1 3 -0.1
v -1.1 3.1 0.0999999
v -0.9 3.1 0.0999999
v 1.1 3.1 0.0999999
v 1.3 3.1 0.0999999
v -1.1 3.1 -1.19209e-07
v -0.9 3.1 -1.19209e-07
v 1.1 3.1 -1.19209e-07
v 1.3 3.1 -1.19209e-07
v -0.8 3.3 0.2
v 1.19209e-07 3.3 0.2
v 0.2 3.3 0.2
v 1 3.3 0.2
v -0.8 3.3 0.0999999
v 1.19209e-07 3.3 0.0999999
v 0.2 3.3 0.0999999
v 1 3.3 0.0999999
v -0.8 3.3 -1.19209e-07
v 1.19209e-07 3.3 -1.19209e-07
v 0.2 3.3 -1.19209e-07
v 1 3.3 -1.19209e-07
v -0.8 3.3 -0.1
v 1.19209e-07 3.3 -0.1
v 0.2 3.3 -0.1
v 1 3.3 -0.1
v 1.19209e-07 3.9 0.2
v 0.2 3.9 0.2
v 1.19209e-07 3.9 0.0999999
v 0.2 3.9 0.0999999
v 1.19209e-07 3.9 -1.19209e-07
v 0.2 3.9 -1.19209e-07
v 1.19209e-07 3.9 -0.1
v 0.2 3.9 -0.1
v -1.2 0.1 1.2
v 1.4 0.1 1.2
v -0.9 0.1 0.9
v 1.1 0.1 0.9
v -0.9 0.1 -0.7
v 1.1 0.1 -0.7
v -1.2 0.1 -1.1
v 1.4 0.1 -1.1
v -0.9 0.5 0.7
v -0.7 0.5 0.7
v -0.9 0.5 -0.5
v -0.7 0.5 -0.5
v -1 0.6 1
v 1.2 0.6 1
v -0.9 0.6 0.9
v 1.1 0.6 0.9
v -0.9 0.6 0.7
v -0.7 0.6 0.7
v 0.9 0.6 0.7
v -0.9 0.6 -0.5
v -0.7 0.6 -0.5
v 0.9 0.6 -0.5
v -0.9 0.6 -0.7
v 1.1 0.6 -0.7
v -1 0.6 -0.8
v 1.2 0.6 -0.8
v -0.8 1.1 0.8
v 1 1.1 0.8
v -0.7 1.1 0.7
v 0.9 1.1 0.7
v -0.0999999 1.1 0.2
v 1.19209e-07 1.1 0.2
v 0.2 1.1 0.2
v 0.3 1.1 0.2
v 1.19209e-07 1.1 0.0999999
v 0.2 1.1 0.0999999
v 1.19209e-07 1.1 -1.19209e-07
v 0.2 1.1 -1.19209e-07
v -0.0999999 1.1 -0.1
v 1.19209e-07 1.1 -0.1
v 0.2 1.1 -0.1
v 0.3 1.1 -0.1
v -0.7 1.1 -0.5
v 0.9 1.1 -0.5
v -0.8 1.1 -0.6
v 1 1.1 -0.6
v -0.8 3.1 0.2
v 1.19209e-07 3.1 0.2
v 0.2 3.1 0.2
v 1 3.1 0.2
v -0.8 3.1 0.0999999
v 1.19209e-07 3.1 0.0999999
v 0.2 3.1 0.0999999
v 1 3.1 0.0999999
v -0.8 3.1 -1.19209e-07
v 1.19209e-07 3.1 -1.19209e-07
v 0.2 3.1 -1.19209e-07
v 1 3.1 -1.19209e-07
v -0.8 3.1 -0.1
v 1.19209e-07 3.1 -0.1
v 0.2 3.1 -0.1
v 1 3.1 -0.1
v -1.1 3.3 0.0999999
v -0.9 3.3 0.0999999
v 1.1 3.3 0.0999999
v 1.3 3.3 0.0999999
v -1.1 3.3 -1.19209e-07
v -0.9 3.3 -1.19209e-07
v 1.1 3.3 -1.19209e-07
v 1.3 3.3 -1.19209e-07
v -0.9 3.4 0.2
v -0.0999999 3.4 0.2
v 0.3 3.4 0.2
v 1.1 3.4 0.2
v -0.9 3.4 -0.1
v -0.0999999 3.4 -0.1
v 0.3 3.4 -0.1
v 1.1 3.4 -0.1
v -0.0999999 4 0.2
v 0.3 4 0.2
v 1.19209e-07 4 0.0999999
v 0.2 4 0.0999999
v 1.19209e-07 4 -1.19209e-07
v 0.2 4 -1.19209e-07
v -0.0999999 4 -0.1
v 0.3 4 -0.1
v 1.19209e-07 4.2 0.0999999
v 0.2 4.2 0.0999999
v 1.19209e-07 4.2 -1.19209e-07
v 0.2 4.2 -1.19209e-07

# faces
f 3/4/1 2/4/1 1/4/1
f 4/4/1 2/4/1 3/4/1
f 7/1/1 6/1/1 5/1/1
f 8/1/1 6/1/1 7/1/1
f 11/4/1 10/4/1 9/4/1
f 12/4/1 10/4/1 11/4/1
f 15/5/1 14/5/1 13/5/1
f 16/5/1 14/5/1 15/5/1
f 19/2/1 18/2/1 17/2/1
f 20/2/1 18/2/1 19/2/1
f 21/2/1 19/2/1 17/2/1
f 22/2/1 18/2/1 20/2/1
f 23/2/1 21/2/1 17/2/1
f 23/2/1 22/2/1 21/2/1
f 24/2/1 18/2/1 22/2/1
f 24/2/1 22/2/1 23/2/1
f 27/4/1 26/4/1 25/4/1
f 28/4/1 26/4/1 27/4/1
f 31/5/1 30/5/1 29/5/1
f 32/5/1 30/5/1 31/5/1
f 33/5/1 32/5/1 31/5/1
f 34/5/1 32/5/1 33/5/1
f 37/2/1 36/2/1 35/2/1
f 38/2/1 36/2/1 37/2/1
f 41/2/1 40/2/1 39/2/1
f 42/2/1 40/2/1 41/2/1
f 45/1/1 44/1/1 43/1/1
f 46/1/1 44/1/1 45/1/1
f 51/2/1 48/2/1 47/2/1
f 52/2/1 48/2/1 51/2/1
f 53/2/1 50/2/1 49/2/1
f 54/2/1 50/2/1 53/2/1
f 59/2/1 56/2/1 55/2/1
f 60/2/1 56/2/1 59/2/1
f 61/2/1 58/2/1 57/2/1
f 62/2/1 58/2/1 61/2/1
f 67/2/1 64/2/1 63/2/1
f 68/2/1 64/2/1 67/2/1
f 69/2/1 66/2/1 65/2/1
f 70/2/1 66/2/1 69/2/1
f 71/4/2 72/4/2 73/4/2
f 73/4/2 72/4/2 74/4/2
f 75/2/2 76/2/2 79/2/2
f 79/2/2 76/2/2 80/2/2
f 77/2/2 78/2/2 81/2/2
f 81/2/2 78/2/2 82/2/2
f 83/2/2 84/2/2 87/2/2
f 87/2/2 84/2/2 88/2/2
f 85/2/2 86/2/2 89/2/2
f 89/2/2 86/2/2 90/2/2
f 91/2/2 92/2/2 95/2/2
f 95/2/2 92/2/2 96/2/2
f 93/2/2 94/2/2 97/2/2
f 97/2/2 94/2/2 98/2/2
f 99/1/2 100/1/2 101/1/2
f 101/1/2 100/1/2 102/1/2
f 103/2/2 104/2/2 105/2/2
f 105/2/2 104/2/2 106/2/2
f 107/2/2 108/2/2 109/2/2
f 109/2/2 108/2/2 110/2/2
f 111/5/2 112/5/2 113/5/2
f 113/5/2 112/5/2 114/5/2
f 115/4/2 116/4/2 117/4/2
f 117/4/2 116/4/2 118/4/2
f 119/5/2 120/5/2 121/5/2
f 121/5/2 120/5/2 122/5/2
f 123/2/2 124/2/2 125/2/2
f 125/2/2 124/2/2 126/2/2
f 123/2/2 125/2/2 127/2/2
f 126/2/2 124/2/2 128/2/2
f 123/2/2 127/2/2 129/2/2
f 127/2/2 128/2/2 129/2/2
f 128/2/2 124/2/2 130/2/2
f 129/2/2 128/2/2 130/2/2
f 131/4/2 132/4/2 133/4/2
f 133/4/2 132/4/2 134/4/2
f 135/1/2 136/1/2 137/1/2
f 137/1/2 136/1/2 138/1/2
f 139/4/2 140/4/2 141/4/2
f 141/4/2 140/4/2 142/4/2
f 145/4/3 144/4/3 143/4/3
f 146/4/3 144/4/3 145/4/3
f 149/4/3 148/4/3 147/4/3
f 150/4/3 148/4/3 149/4/3
f 153/5/3 152/5/3 151/5/3
f 154/5/3 152/5/3 153/5/3
f 157/4/3 156/4/3 155/4/3
f 158/4/3 156/4/3 157/4/3
f 161/5/3 160/5/3 159/5/3
f 162/5/3 160/5/3 161/5/3
f 165/2/3 164/2/3 163/2/3
f 166/2/3 164/2/3 165/2/3
f 168/2/3 165/2/3 163/2/3
f 169/2/3 164/2/3 166/2/3
f 171/2/3 168/2/3 167/2/3
f 172/2/3 165/2/3 168/2/3
f 172/2/3 168/2/3 171/2/3
f 173/2/3 170/2/3 169/2/3
f 173/2/3 169/2/3 166/2/3
f 174/2/3 170/2/3 173/2/3
f 178/2/3 170/2/3 174/2/3
f 179/2/3 176/2/3 175/2/3
f 180/2/3 176/2/3 179/2/3
f 181/2/3 178/2/3 177/2/3
f 182/2/3 170/2/3 178/2/3
f 182/2/3 178/2/3 181/2/3
f 183/2/3 176/2/3 180/2/3
f 184/2/3 181/2/3 177/2/3
f 185/2/3 183/2/3 180/2/3
f 185/2/3 184/2/3 183/2/3
f 186/2/3 181/2/3 184/2/3
f 186/2/3 184/2/3 185/2/3
f 189/1/3 188/1/3 187/1/3
f 190/1/3 188/1/3 189/1/3
f 194/3/3 192/3/3 191/3/3
f 195/3/3 192/3/3 194/3/3
f 199/3/3 195/3/3 194/3/3
f 199/3/3 194/3/3 193/3/3
f 199/3/3 196/3/3 195/3/3
f 200/3/3 196/3/3 199/3/3
f 201/3/3 196/3/3 200/3/3
f 202/3/3 196/3/3 201/3/3
f 203/1/3 198/1/3 197/1/3
f 204/1/3 198/1/3 203/1/3
f 205/3/3 201/3/3 200/3/3
f 206/3/3 201/3/3 205/3/3
f 209/1/3 208/1/3 207/1/3
f 210/1/3 208/1/3 209/1/3
f 213/5/3 212/5/3 211/5/3
f 214/5/3 212/5/3 213/5/3
f 215/5/4 216/5/4 217/5/4
f 217/5/4 216/5/4 218/5/4
f 219/1/4 220/1/4 221/1/4
f 221/1/4 220/1/4 222/1/4
f 223/3/4 224/3/4 226/3/4
f 226/3/4 224/3/4 227/3/4
f 226/3/4 227/3/4 231/3/4
f 225/3/4 226/3/4 231/3/4
f 227/3/4 228/3/4 231/3/4
f 231/3/4 228/3/4 232/3/4
f 232/3/4 228/3/4 233/3/4
f 233/3/4 228/3/4 234/3/4
f 229/1/4 230/1/4 235/1/4
f 235/1/4 230/1/4 236/1/4
f 232/3/4 233/3/4 237/3/4
f 237/3/4 233/3/4 238/3/4
f 239/1/4 240/1/4 241/1/4
f 241/1/4 240/1/4 242/1/4
f 243/2/4 244/2/4 245/2/4
f 245/2/4 244/2/4 246/2/4
f 243/2/4 245/2/4 248/2/4
f 246/2/4 244/2/4 249/2/4
f 247/2/4 248/2/4 251/2/4
f 248/2/4 245/2/4 252/2/4
f 251/2/4 248/2/4 252/2/4
f 249/2/4 250/2/4 253/2/4
f 246/2/4 249/2/4 253/2/4
f 253/2/4 250/2/4 254/2/4
f 254/2/4 250/2/4 258/2/4
f 255/2/4 256/2/4 259/2/4
f 259/2/4 256/2/4 260/2/4
f 257/2/4 258/2/4 261/2/4
f 258/2/4 250/2/4 262/2/4
f 261/2/4 258/2/4 262/2/4
f 260/2/4 256/2/4 263/2/4
f 257/2/4 261/2/4 264/2/4
f 260/2/4 263/2/4 265/2/4
f 263/2/4 264/2/4 265/2/4
f 264/2/4 261/2/4 266/2/4
f 265/2/4 264/2/4 266/2/4
f 267/5/4 268/5/4 269/5/4
f 269/5/4 268/5/4 270/5/4
f 271/4/4 272/4/4 273/4/4
f 273/4/4 272/4/4 274/4/4
f 275/5/4 276/5/4 277/5/4
f 277/5/4 276/5/4 278/5/4
f 279/4/4 280/4/4 281/4/4
f 281/4/4 280/4/4 282/4/4
f 283/4/4 284/4/4 285/4/4
f 285/4/4 284/4/4 286/4/4
f 289/4/5 288/4/5 287/4/5
f 290/4/5 288/4/5 289/4/5
f 293/4/5 292/4/5 291/4/5
f 294/4/5 292/4/5 293/4/5
f 295/4/5 293/4/5 291/4/5
f 296/4/5 292/4/5 294/4/5
f 297/4/5 295/4/5 291/4/5
f 297/4/5 296/4/5 295/4/5
f 298/4/5 292/4/5 296/4/5
f 298/4/5 296/4/5 297/4/5
f 301/4/5 300/4/5 299/4/5
f 302/4/5 300/4/5 301/4/5
f 303/4/5 301/4/5 299/4/5
f 304/4/5 300/4/5 302/4/5
f 305/4/5 303/4/5 299/4/5
f 305/4/5 304/4/5 303/4/5
f 306/4/5 300/4/5 304/4/5
f 306/4/5 304/4/5 305/4/5
f 311/2/5 308/2/5 307/2/5
f 312/2/5 308/2/5 311/2/5
f 313/2/5 310/2/5 309/2/5
f 314/2/5 310/2/5 313/2/5
f 319/1/5 316/1/5 315/1/5
f 320/1/5 316/1/5 319/1/5
f 321/1/5 318/1/5 317/1/5
f 322/1/5 318/1/5 321/1/5
f 327/2/5 324/2/5 323/2/5
f 328/2/5 324/2/5 327/2/5
f 329/2/5 326/2/5 325/2/5
f 330/2/5 326/2/5 329/2/5
f 335/2/5 332/2/5 331/2/5
f 336/2/5 332/2/5 335/2/5
f 337/2/5 334/2/5 333/2/5
f 338/2/5 334/2/5 337/2/5
f 341/2/5 340/2/5 339/2/5
f 342/2/5 340/2/5 341/2/5
f 345/2/5 344/2/5 343/2/5
f 346/2/5 344/2/5 345/2/5
f 347/4/6 348/4/6 349/4/6
f 349/4/6 348/4/6 350/4/6
f 347/4/6 349/4/6 351/4/6
f 350/4/6 348/4/6 352/4/6
f 347/4/6 351/4/6 353/4/6
f 351/4/6 352/4/6 353/4/6
f 352/4/6 348/4/6 354/4/6
f 353/4/6 352/4/6 354/4/6
f 355/5/6 356/5/6 357/5/6
f 357/5/6 356/5/6 358/5/6
f 359/4/6 360/4/6 361/4/6
f 361/4/6 360/4/6 362/4/6
f 359/4/6 361/4/6 363/4/6
f 361/5/6 362/5/6 363/5/6
f 363/5/6 362/5/6 364/5/6
f 364/5/6 362/5/6 365/5/6
f 359/4/6 363/4/6 366/4/6
f 365/5/6 362/5/6 368/5/6
f 366/5/6 367/5/6 369/5/6
f 367/5/6 368/5/6 369/5/6
f 359/4/6 366/4/6 369/4/6
f 362/4/6 360/4/6 370/4/6
f 369/5/6 368/5/6 370/5/6
f 368/5/6 362/5/6 370/5/6
f 359/4/6 369/4/6 371/4/6
f 369/4/6 370/4/6 371/4/6
f 370/4/6 360/4/6 372/4/6
f 371/4/6 370/4/6 372/4/6
f 373/4/6 374/4/6 375/4/6
f 375/4/6 374/4/6 376/4/6
f 375/5/6 376/5/6 377/5/6
f 377/5/6 376/5/6 378/5/6
f 378/5/6 376/5/6 379/5/6
f 379/5/6 376/5/6 380/5/6
f 378/3/6 379/3/6 381/3/6
f 381/3/6 379/3/6 382/3/6
f 375/5/6 377/5/6 385/5/6
f 383/5/6 384/5/6 386/5/6
f 386/5/6 384/5/6 387/5/6
f 380/5/6 376/5/6 388/5/6
f 373/4/6 375/4/6 389/4/6
f 387/5/6 388/5/6 389/5/6
f 375/5/6 385/5/6 389/5/6
f 386/5/6 387/5/6 389/5/6
f 385/5/6 386/5/6 389/5/6
f 388/5/6 376/5/6 390/5/6
f 389/5/6 388/5/6 390/5/6
f 376/4/6 374/4/6 390/4/6
f 373/4/6 389/4/6 391/4/6
f 389/4/6 390/4/6 391/4/6
f 390/4/6 374/4/6 392/4/6
f 391/4/6 390/4/6 392/4/6
f 393/2/6 394/2/6 397/2/6
f 397/2/6 394/2/6 398/2/6
f 395/2/6 396/2/6 399/2/6
f 399/2/6 396/2/6 400/2/6
f 401/2/6 402/2/6 405/2/6
f 405/2/6 402/2/6 406/2/6
f 403/2/6 404/2/6 407/2/6
f 407/2/6 404/2/6 408/2/6
f 409/1/6 410/1/6 413/1/6
f 413/1/6 410/1/6 414/1/6
f 411/1/6 412/1/6 415/1/6
f 415/1/6 412/1/6 416/1/6
f 417/2/6 418/2/6 421/2/6
f 421/2/6 418/2/6 422/2/6
f 419/2/6 420/2/6 423/2/6
f 423/2/6 420/2/6 424/2/6
f 425/2/6 426/2/6 427/2/6
f 427/2/6 426/2/6 428/2/6
f 425/2/6 427/2/6 429/2/6
f 428/2/6 426/2/6 430/2/6
f 425/2/6 429/2/6 431/2/6
f 429/2/6 430/2/6 431/2/6
f 430/2/6 426/2/6 432/2/6
f 431/2/6 430/2/6 432/2/6
f 433/1/6 434/1/6 435/1/6
f 435/1/6 434/1/6 436/1/6
