# MagicaVoxel @ Ephtracy

# group
o 

# material
mtllib Pared.mtl
usemtl palette

# normals
vn -1 0 0
vn 1 0 0
vn 0 0 1
vn 0 0 -1
vn 0 -1 0
vn 0 1 0

# texcoords
vt 0.974609 0.5
vt 0.978516 0.5
vt 0.986328 0.5

# verts
v -0.7 1.8 1.9
v -0.7 1.8 -1.8
v -0.7 2 1.9
v -0.7 2 -1.8
v -0.6 0 1.9
v -0.6 0 0.6
v -0.6 0 0.5
v -0.6 0 -0.4
v -0.6 0 -0.5
v -0.6 0 -0.8
v -0.6 0 -0.9
v -0.6 0 -1.4
v -0.6 0 -1.5
v -0.6 0 -1.8
v -0.6 0.2 0.5
v -0.6 0.2 -0.4
v -0.6 0.3 1.9
v -0.6 0.3 0.6
v -0.6 0.3 0.5
v -0.6 0.3 -0.4
v -0.6 0.4 1.9
v -0.6 0.4 0.6
v -0.6 0.5 -0.9
v -0.6 0.5 -1.4
v -0.6 0.5 -1.5
v -0.6 0.5 -1.8
v -0.6 0.6 1.9
v -0.6 0.6 0.6
v -0.6 0.6 0.5
v -0.6 0.6 -0.4
v -0.6 0.6 -0.5
v -0.6 0.6 -0.8
v -0.6 0.7 1.9
v -0.6 0.7 0.6
v -0.6 0.7 0.5
v -0.6 0.7 -0.4
v -0.6 0.7 -0.5
v -0.6 0.7 -0.8
v -0.6 0.7 -0.9
v -0.6 0.7 -1.8
v -0.6 0.9 -0.9
v -0.6 0.9 -1.8
v -0.6 1 1.9
v -0.6 1 0.6
v -0.6 1 0.5
v -0.6 1 -0.4
v -0.6 1 -0.5
v -0.6 1 -0.8
v -0.6 1.1 1.9
v -0.6 1.1 1.1
v -0.6 1.1 1
v -0.6 1.1 0.8
v -0.6 1.1 0.7
v -0.6 1.1 0.2
v -0.6 1.1 0.1
v -0.6 1.1 -0.4
v -0.6 1.1 -0.5
v -0.6 1.1 -1.2
v -0.6 1.1 -1.3
v -0.6 1.1 -1.8
v -0.6 1.3 1.9
v -0.6 1.3 1.1
v -0.6 1.3 -0.5
v -0.6 1.3 -1.2
v -0.6 1.3 -1.3
v -0.6 1.3 -1.8
v -0.6 1.4 1.9
v -0.6 1.4 1.5
v -0.6 1.4 1.4
v -0.6 1.4 1.1
v -0.6 1.4 -0.5
v -0.6 1.4 -0.8
v -0.6 1.4 -0.9
v -0.6 1.4 -1.2
v -0.6 1.4 -1.3
v -0.6 1.4 -1.8
v -0.6 1.5 0.5
v -0.6 1.5 0.2
v -0.6 1.5 0.1
v -0.6 1.5 -0.4
v -0.6 1.6 0.4
v -0.6 1.6 -0.4
v -0.6 1.8 1.9
v -0.6 1.8 1.5
v -0.6 1.8 1.4
v -0.6 1.8 1.1
v -0.6 1.8 1
v -0.6 1.8 0.8
v -0.6 1.8 0.7
v -0.6 1.8 0.5
v -0.6 1.8 0.4
v -0.6 1.8 -0.4
v -0.6 1.8 -0.5
v -0.6 1.8 -0.8
v -0.6 1.8 -0.9
v -0.6 1.8 -1.2
v -0.6 1.8 -1.3
v -0.6 1.8 -1.8
v -0.3 0 1.9
v -0.3 0 1.2
v -0.3 0 1.1
v -0.3 0 0.4
v -0.3 0 0.3
v -0.3 0 0.1
v -0.3 0 0
v -0.3 0 -0.4
v -0.3 0 -0.5
v -0.3 0 -1
v -0.3 0 -1.1
v -0.3 0 -1.8
v -0.3 0.3 1.9
v -0.3 0.3 1.2
v -0.3 0.3 1.1
v -0.3 0.3 0.4
v -0.3 0.4 1.9
v -0.3 0.4 1.2
v -0.3 0.4 1.1
v -0.3 0.4 0.4
v -0.3 0.6 1.9
v -0.3 0.6 1.2
v -0.3 0.6 0.3
v -0.3 0.6 0.1
v -0.3 0.6 0
v -0.3 0.6 -0.4
v -0.3 0.6 -0.5
v -0.3 0.6 -1
v -0.3 0.6 -1.1
v -0.3 0.6 -1.8
v -0.3 0.7 1.9
v -0.3 0.7 1.2
v -0.3 0.7 0.3
v -0.3 0.7 -0.7
v -0.3 0.7 -0.8
v -0.3 0.7 -1.8
v -0.3 1 1.9
v -0.3 1 1.2
v -0.3 1 1.1
v -0.3 1 0.4
v -0.3 1 0.3
v -0.3 1 -0.7
v -0.3 1 -0.8
v -0.3 1 -1.8
v -0.3 1.1 1.9
v -0.3 1.1 1.2
v -0.3 1.1 1.1
v -0.3 1.1 0.8
v -0.3 1.1 0.7
v -0.3 1.1 0.4
v -0.3 1.1 0.3
v -0.3 1.1 -0.7
v -0.3 1.1 -0.8
v -0.3 1.1 -1.8
v -0.3 1.2 1.1
v -0.3 1.2 0.8
v -0.3 1.2 0.7
v -0.3 1.2 0.4
v -0.3 1.3 1.1
v -0.3 1.3 0.8
v -0.3 1.3 0.7
v -0.3 1.3 0.4
v -0.3 1.3 0.3
v -0.3 1.3 -0.7
v -0.3 1.3 -0.8
v -0.3 1.3 -1.8
v -0.3 1.4 1.9
v -0.3 1.4 1.2
v -0.3 1.4 0.3
v -0.3 1.4 -0.7
v -0.3 1.4 -0.8
v -0.3 1.4 -1.8
v -0.3 1.5 1.9
v -0.3 1.5 1.2
v -0.3 1.8 1.9
v -0.3 1.8 1.2
v -0.3 1.8 1.1
v -0.3 1.8 0.8
v -0.3 1.8 0.7
v -0.3 1.8 0.4
v -0.3 1.8 0.3
v -0.3 1.8 -0.7
v -0.3 1.8 -0.8
v -0.3 1.8 -1.8
v -0.2 1.8 1.9
v -0.2 1.8 -1.8
v -0.2 2 1.9
v -0.2 2 -1.8
v -0.7 1.8 1.9
v -0.7 2 1.9
v -0.6 0 1.9
v -0.6 0.3 1.9
v -0.6 0.4 1.9
v -0.6 0.6 1.9
v -0.6 0.7 1.9
v -0.6 1 1.9
v -0.6 1.1 1.9
v -0.6 1.3 1.9
v -0.6 1.4 1.9
v -0.6 1.8 1.9
v -0.5 1.3 1.9
v -0.5 1.4 1.9
v -0.4 1.4 1.9
v -0.4 1.5 1.9
v -0.3 0 1.9
v -0.3 0.3 1.9
v -0.3 0.4 1.9
v -0.3 0.6 1.9
v -0.3 0.7 1.9
v -0.3 1 1.9
v -0.3 1.1 1.9
v -0.3 1.4 1.9
v -0.3 1.5 1.9
v -0.3 1.8 1.9
v -0.2 1.8 1.9
v -0.2 2 1.9
v -0.7 1.8 -1.8
v -0.7 2 -1.8
v -0.6 0 -1.8
v -0.6 0.5 -1.8
v -0.6 0.7 -1.8
v -0.6 0.9 -1.8
v -0.6 1.1 -1.8
v -0.6 1.3 -1.8
v -0.6 1.4 -1.8
v -0.6 1.8 -1.8
v -0.5 0.5 -1.8
v -0.5 0.6 -1.8
v -0.5 0.9 -1.8
v -0.5 1 -1.8
v -0.3 0 -1.8
v -0.3 0.6 -1.8
v -0.3 0.7 -1.8
v -0.3 1 -1.8
v -0.3 1.1 -1.8
v -0.3 1.3 -1.8
v -0.3 1.4 -1.8
v -0.3 1.8 -1.8
v -0.2 1.8 -1.8
v -0.2 2 -1.8
v -0.6 0 1.9
v -0.3 0 1.9
v -0.4 0 1.2
v -0.3 0 1.2
v -0.4 0 1.1
v -0.3 0 1.1
v -0.6 0 0.6
v -0.5 0 0.6
v -0.6 0 0.5
v -0.5 0 0.5
v -0.4 0 0.4
v -0.3 0 0.4
v -0.4 0 0.3
v -0.3 0 0.3
v -0.4 0 0.1
v -0.3 0 0.1
v -0.4 0 0
v -0.3 0 0
v -0.6 0 -0.4
v -0.5 0 -0.4
v -0.4 0 -0.4
v -0.3 0 -0.4
v -0.6 0 -0.5
v -0.5 0 -0.5
v -0.4 0 -0.5
v -0.3 0 -0.5
v -0.6 0 -0.8
v -0.5 0 -0.8
v -0.6 0 -0.9
v -0.5 0 -0.9
v -0.4 0 -1
v -0.3 0 -1
v -0.4 0 -1.1
v -0.3 0 -1.1
v -0.6 0 -1.4
v -0.5 0 -1.4
v -0.6 0 -1.5
v -0.5 0 -1.5
v -0.6 0 -1.8
v -0.3 0 -1.8
v -0.7 1.8 1.9
v -0.6 1.8 1.9
v -0.3 1.8 1.9
v -0.2 1.8 1.9
v -0.6 1.8 1.5
v -0.6 1.8 1.4
v -0.3 1.8 1.2
v -0.6 1.8 1.1
v -0.3 1.8 1.1
v -0.6 1.8 1
v -0.6 1.8 0.8
v -0.3 1.8 0.8
v -0.6 1.8 0.7
v -0.3 1.8 0.7
v -0.6 1.8 0.5
v -0.6 1.8 0.4
v -0.3 1.8 0.4
v -0.3 1.8 0.3
v -0.6 1.8 -0.4
v -0.6 1.8 -0.5
v -0.3 1.8 -0.7
v -0.6 1.8 -0.8
v -0.3 1.8 -0.8
v -0.6 1.8 -0.9
v -0.6 1.8 -1.2
v -0.6 1.8 -1.3
v -0.7 1.8 -1.8
v -0.6 1.8 -1.8
v -0.3 1.8 -1.8
v -0.2 1.8 -1.8
v -0.7 2 1.9
v -0.2 2 1.9
v -0.7 2 -1.8
v -0.2 2 -1.8

# faces
f 3/3/1 2/3/1 1/3/1
f 4/3/1 2/3/1 3/3/1
f 15/2/1 7/2/1 6/2/1
f 15/1/1 8/1/1 7/1/1
f 16/2/1 9/2/1 8/2/1
f 16/1/1 8/1/1 15/1/1
f 17/1/1 6/1/1 5/1/1
f 18/2/1 15/2/1 6/2/1
f 18/1/1 6/1/1 17/1/1
f 18/2/1 16/2/1 15/2/1
f 19/2/1 16/2/1 18/2/1
f 20/2/1 9/2/1 16/2/1
f 20/2/1 16/2/1 19/2/1
f 21/2/1 19/2/1 18/2/1
f 21/2/1 18/2/1 17/2/1
f 22/2/1 19/2/1 21/2/1
f 23/2/1 11/2/1 10/2/1
f 23/1/1 12/1/1 11/1/1
f 24/2/1 13/2/1 12/2/1
f 24/1/1 12/1/1 23/1/1
f 25/1/1 14/1/1 13/1/1
f 25/2/1 13/2/1 24/2/1
f 26/1/1 14/1/1 25/1/1
f 27/1/1 22/1/1 21/1/1
f 28/2/1 19/2/1 22/2/1
f 28/1/1 22/1/1 27/1/1
f 29/1/1 20/1/1 19/1/1
f 29/2/1 19/2/1 28/2/1
f 30/2/1 9/2/1 20/2/1
f 30/1/1 20/1/1 29/1/1
f 31/1/1 10/1/1 9/1/1
f 31/2/1 9/2/1 30/2/1
f 32/2/1 24/2/1 23/2/1
f 32/1/1 10/1/1 31/1/1
f 32/2/1 23/2/1 10/2/1
f 32/2/1 26/2/1 25/2/1
f 32/2/1 25/2/1 24/2/1
f 33/2/1 29/2/1 28/2/1
f 33/2/1 31/2/1 30/2/1
f 33/2/1 32/2/1 31/2/1
f 33/2/1 28/2/1 27/2/1
f 33/2/1 30/2/1 29/2/1
f 34/2/1 32/2/1 33/2/1
f 35/2/1 32/2/1 34/2/1
f 36/2/1 32/2/1 35/2/1
f 37/2/1 32/2/1 36/2/1
f 38/2/1 26/2/1 32/2/1
f 38/2/1 32/2/1 37/2/1
f 39/2/1 26/2/1 38/2/1
f 40/2/1 26/2/1 39/2/1
f 41/2/1 39/2/1 38/2/1
f 41/1/1 40/1/1 39/1/1
f 42/1/1 40/1/1 41/1/1
f 43/1/1 34/1/1 33/1/1
f 44/2/1 35/2/1 34/2/1
f 44/1/1 34/1/1 43/1/1
f 45/1/1 36/1/1 35/1/1
f 45/2/1 35/2/1 44/2/1
f 46/2/1 37/2/1 36/2/1
f 46/1/1 36/1/1 45/1/1
f 47/1/1 38/1/1 37/1/1
f 47/2/1 37/2/1 46/2/1
f 48/2/1 41/2/1 38/2/1
f 48/1/1 38/1/1 47/1/1
f 48/2/1 42/2/1 41/2/1
f 49/2/1 45/2/1 44/2/1
f 49/2/1 44/2/1 43/2/1
f 49/2/1 48/2/1 47/2/1
f 49/2/1 47/2/1 46/2/1
f 49/2/1 46/2/1 45/2/1
f 50/2/1 48/2/1 49/2/1
f 51/2/1 48/2/1 50/2/1
f 52/2/1 48/2/1 51/2/1
f 53/2/1 48/2/1 52/2/1
f 54/2/1 48/2/1 53/2/1
f 55/2/1 48/2/1 54/2/1
f 56/2/1 48/2/1 55/2/1
f 57/2/1 48/2/1 56/2/1
f 58/2/1 42/2/1 48/2/1
f 58/2/1 48/2/1 57/2/1
f 59/2/1 42/2/1 58/2/1
f 60/2/1 42/2/1 59/2/1
f 61/1/1 50/1/1 49/1/1
f 62/2/1 51/2/1 50/2/1
f 62/1/1 50/1/1 61/1/1
f 63/2/1 57/2/1 56/2/1
f 63/1/1 58/1/1 57/1/1
f 64/2/1 59/2/1 58/2/1
f 64/1/1 58/1/1 63/1/1
f 65/1/1 60/1/1 59/1/1
f 65/2/1 59/2/1 64/2/1
f 66/1/1 60/1/1 65/1/1
f 67/2/1 62/2/1 61/2/1
f 68/2/1 62/2/1 67/2/1
f 69/2/1 62/2/1 68/2/1
f 70/2/1 51/2/1 62/2/1
f 70/2/1 62/2/1 69/2/1
f 71/2/1 63/2/1 56/2/1
f 71/2/1 64/2/1 63/2/1
f 71/2/1 65/2/1 64/2/1
f 71/2/1 66/2/1 65/2/1
f 72/2/1 66/2/1 71/2/1
f 73/2/1 66/2/1 72/2/1
f 74/2/1 66/2/1 73/2/1
f 75/2/1 66/2/1 74/2/1
f 76/2/1 66/2/1 75/2/1
f 77/1/1 54/1/1 53/1/1
f 78/2/1 55/2/1 54/2/1
f 78/1/1 54/1/1 77/1/1
f 79/1/1 56/1/1 55/1/1
f 79/2/1 55/2/1 78/2/1
f 80/2/1 71/2/1 56/2/1
f 80/1/1 56/1/1 79/1/1
f 81/2/1 78/2/1 77/2/1
f 81/2/1 79/2/1 78/2/1
f 81/2/1 80/2/1 79/2/1
f 82/2/1 71/2/1 80/2/1
f 82/2/1 80/2/1 81/2/1
f 83/1/1 68/1/1 67/1/1
f 84/2/1 69/2/1 68/2/1
f 84/1/1 68/1/1 83/1/1
f 85/1/1 70/1/1 69/1/1
f 85/2/1 69/2/1 84/2/1
f 86/2/1 51/2/1 70/2/1
f 86/1/1 70/1/1 85/1/1
f 87/1/1 52/1/1 51/1/1
f 87/2/1 51/2/1 86/2/1
f 88/2/1 53/2/1 52/2/1
f 88/1/1 52/1/1 87/1/1
f 89/1/1 77/1/1 53/1/1
f 89/2/1 53/2/1 88/2/1
f 90/2/1 81/2/1 77/2/1
f 90/1/1 77/1/1 89/1/1
f 91/1/1 82/1/1 81/1/1
f 91/2/1 81/2/1 90/2/1
f 92/2/1 71/2/1 82/2/1
f 92/1/1 82/1/1 91/1/1
f 93/1/1 72/1/1 71/1/1
f 93/2/1 71/2/1 92/2/1
f 94/2/1 73/2/1 72/2/1
f 94/1/1 72/1/1 93/1/1
f 95/1/1 74/1/1 73/1/1
f 95/2/1 73/2/1 94/2/1
f 96/2/1 75/2/1 74/2/1
f 96/1/1 74/1/1 95/1/1
f 97/1/1 76/1/1 75/1/1
f 97/2/1 75/2/1 96/2/1
f 98/1/1 76/1/1 97/1/1
f 99/1/2 100/1/2 111/1/2
f 100/2/2 101/2/2 112/2/2
f 111/1/2 100/1/2 112/1/2
f 101/1/2 102/1/2 113/1/2
f 112/2/2 101/2/2 113/2/2
f 102/2/2 103/2/2 114/2/2
f 113/1/2 102/1/2 114/1/2
f 111/2/2 112/2/2 115/2/2
f 112/2/2 113/2/2 115/2/2
f 113/2/2 114/2/2 115/2/2
f 115/2/2 114/2/2 116/2/2
f 116/2/2 114/2/2 117/2/2
f 114/2/2 103/2/2 118/2/2
f 117/2/2 114/2/2 118/2/2
f 115/1/2 116/1/2 119/1/2
f 116/2/2 117/2/2 120/2/2
f 119/1/2 116/1/2 120/1/2
f 103/1/2 104/1/2 121/1/2
f 118/2/2 103/2/2 121/2/2
f 104/2/2 105/2/2 122/2/2
f 121/1/2 104/1/2 122/1/2
f 105/1/2 106/1/2 123/1/2
f 122/2/2 105/2/2 123/2/2
f 106/2/2 107/2/2 124/2/2
f 123/1/2 106/1/2 124/1/2
f 107/1/2 108/1/2 125/1/2
f 124/2/2 107/2/2 125/2/2
f 108/2/2 109/2/2 126/2/2
f 125/1/2 108/1/2 126/1/2
f 109/1/2 110/1/2 127/1/2
f 126/2/2 109/2/2 127/2/2
f 127/1/2 110/1/2 128/1/2
f 119/2/2 120/2/2 129/2/2
f 120/2/2 117/2/2 130/2/2
f 129/2/2 120/2/2 130/2/2
f 125/2/2 126/2/2 131/2/2
f 124/2/2 125/2/2 131/2/2
f 118/2/2 121/2/2 131/2/2
f 127/2/2 128/2/2 131/2/2
f 126/2/2 127/2/2 131/2/2
f 121/2/2 122/2/2 131/2/2
f 122/2/2 123/2/2 131/2/2
f 123/2/2 124/2/2 131/2/2
f 131/2/2 128/2/2 132/2/2
f 132/2/2 128/2/2 133/2/2
f 133/2/2 128/2/2 134/2/2
f 129/1/2 130/1/2 135/1/2
f 130/2/2 117/2/2 136/2/2
f 135/1/2 130/1/2 136/1/2
f 117/1/2 118/1/2 137/1/2
f 136/2/2 117/2/2 137/2/2
f 118/2/2 131/2/2 138/2/2
f 137/1/2 118/1/2 138/1/2
f 131/1/2 132/1/2 139/1/2
f 138/2/2 131/2/2 139/2/2
f 132/2/2 133/2/2 140/2/2
f 139/1/2 132/1/2 140/1/2
f 133/1/2 134/1/2 141/1/2
f 140/2/2 133/2/2 141/2/2
f 141/1/2 134/1/2 142/1/2
f 135/2/2 136/2/2 143/2/2
f 136/2/2 137/2/2 143/2/2
f 141/2/2 142/2/2 143/2/2
f 140/2/2 141/2/2 143/2/2
f 139/2/2 140/2/2 143/2/2
f 138/2/2 139/2/2 143/2/2
f 137/2/2 138/2/2 143/2/2
f 143/2/2 142/2/2 144/2/2
f 144/2/2 142/2/2 145/2/2
f 145/2/2 142/2/2 146/2/2
f 146/2/2 142/2/2 147/2/2
f 147/2/2 142/2/2 148/2/2
f 148/2/2 142/2/2 149/2/2
f 149/2/2 142/2/2 150/2/2
f 150/2/2 142/2/2 151/2/2
f 151/2/2 142/2/2 152/2/2
f 144/2/2 145/2/2 153/2/2
f 145/1/2 146/1/2 153/1/2
f 146/2/2 147/2/2 154/2/2
f 153/1/2 146/1/2 154/1/2
f 147/1/2 148/1/2 155/1/2
f 154/2/2 147/2/2 155/2/2
f 148/2/2 149/2/2 156/2/2
f 155/1/2 148/1/2 156/1/2
f 144/2/2 153/2/2 157/2/2
f 153/2/2 154/2/2 157/2/2
f 155/2/2 156/2/2 157/2/2
f 154/2/2 155/2/2 157/2/2
f 157/2/2 156/2/2 158/2/2
f 158/2/2 156/2/2 159/2/2
f 156/2/2 149/2/2 160/2/2
f 159/2/2 156/2/2 160/2/2
f 149/1/2 150/1/2 161/1/2
f 160/2/2 149/2/2 161/2/2
f 150/2/2 151/2/2 162/2/2
f 161/1/2 150/1/2 162/1/2
f 151/1/2 152/1/2 163/1/2
f 162/2/2 151/2/2 163/2/2
f 163/1/2 152/1/2 164/1/2
f 143/1/2 144/1/2 165/1/2
f 144/2/2 157/2/2 166/2/2
f 165/1/2 144/1/2 166/1/2
f 161/2/2 162/2/2 167/2/2
f 160/2/2 161/2/2 167/2/2
f 162/2/2 163/2/2 167/2/2
f 163/2/2 164/2/2 167/2/2
f 167/2/2 164/2/2 168/2/2
f 168/2/2 164/2/2 169/2/2
f 169/2/2 164/2/2 170/2/2
f 165/2/2 166/2/2 171/2/2
f 166/2/2 157/2/2 172/2/2
f 171/2/2 166/2/2 172/2/2
f 171/1/2 172/1/2 173/1/2
f 172/2/2 157/2/2 174/2/2
f 173/1/2 172/1/2 174/1/2
f 157/1/2 158/1/2 175/1/2
f 174/2/2 157/2/2 175/2/2
f 158/2/2 159/2/2 176/2/2
f 175/1/2 158/1/2 176/1/2
f 159/1/2 160/1/2 177/1/2
f 176/2/2 159/2/2 177/2/2
f 160/2/2 167/2/2 178/2/2
f 177/1/2 160/1/2 178/1/2
f 167/1/2 168/1/2 179/1/2
f 178/2/2 167/2/2 179/2/2
f 168/2/2 169/2/2 180/2/2
f 179/1/2 168/1/2 180/1/2
f 169/1/2 170/1/2 181/1/2
f 180/2/2 169/2/2 181/2/2
f 181/1/2 170/1/2 182/1/2
f 183/3/2 184/3/2 185/3/2
f 185/3/2 184/3/2 186/3/2
f 198/3/3 188/3/3 187/3/3
f 199/2/3 197/2/3 196/2/3
f 199/1/3 196/1/3 195/1/3
f 200/1/3 198/1/3 197/1/3
f 200/2/3 197/2/3 199/2/3
f 201/1/3 200/1/3 199/1/3
f 201/1/3 198/1/3 200/1/3
f 202/1/3 198/1/3 201/1/3
f 203/1/3 190/1/3 189/1/3
f 204/2/3 191/2/3 190/2/3
f 204/1/3 190/1/3 203/1/3
f 205/1/3 192/1/3 191/1/3
f 205/2/3 191/2/3 204/2/3
f 206/2/3 193/2/3 192/2/3
f 206/1/3 192/1/3 205/1/3
f 207/1/3 194/1/3 193/1/3
f 207/2/3 193/2/3 206/2/3
f 208/2/3 195/2/3 194/2/3
f 208/1/3 194/1/3 207/1/3
f 209/1/3 199/1/3 195/1/3
f 209/2/3 195/2/3 208/2/3
f 209/1/3 201/1/3 199/1/3
f 210/2/3 202/2/3 201/2/3
f 210/1/3 201/1/3 209/1/3
f 211/1/3 198/1/3 202/1/3
f 211/2/3 202/2/3 210/2/3
f 212/3/3 188/3/3 198/3/3
f 212/1/3 198/1/3 211/1/3
f 213/3/3 188/3/3 212/3/3
f 214/3/3 188/3/3 213/3/3
f 215/3/4 216/3/4 224/3/4
f 217/1/4 218/1/4 225/1/4
f 218/2/4 219/2/4 225/2/4
f 225/2/4 219/2/4 226/2/4
f 219/1/4 220/1/4 227/1/4
f 220/2/4 221/2/4 227/2/4
f 227/2/4 221/2/4 228/2/4
f 225/1/4 226/1/4 229/1/4
f 217/1/4 225/1/4 229/1/4
f 226/2/4 219/2/4 230/2/4
f 229/1/4 226/1/4 230/1/4
f 227/1/4 228/1/4 231/1/4
f 230/2/4 219/2/4 231/2/4
f 219/1/4 227/1/4 231/1/4
f 228/2/4 221/2/4 232/2/4
f 231/1/4 228/1/4 232/1/4
f 221/1/4 222/1/4 233/1/4
f 232/2/4 221/2/4 233/2/4
f 222/2/4 223/2/4 234/2/4
f 233/1/4 222/1/4 234/1/4
f 223/1/4 224/1/4 235/1/4
f 234/2/4 223/2/4 235/2/4
f 224/3/4 216/3/4 236/3/4
f 235/1/4 224/1/4 236/1/4
f 236/3/4 216/3/4 237/3/4
f 237/3/4 216/3/4 238/3/4
f 241/1/5 240/1/5 239/1/5
f 242/1/5 240/1/5 241/1/5
f 243/1/5 241/1/5 239/1/5
f 243/2/5 242/2/5 241/2/5
f 244/2/5 242/2/5 243/2/5
f 245/1/5 243/1/5 239/1/5
f 245/1/5 244/1/5 243/1/5
f 246/1/5 244/1/5 245/1/5
f 247/2/5 246/2/5 245/2/5
f 248/1/5 244/1/5 246/1/5
f 248/2/5 246/2/5 247/2/5
f 249/1/5 248/1/5 247/1/5
f 249/1/5 244/1/5 248/1/5
f 250/1/5 244/1/5 249/1/5
f 251/1/5 249/1/5 247/1/5
f 251/2/5 250/2/5 249/2/5
f 252/2/5 250/2/5 251/2/5
f 253/1/5 251/1/5 247/1/5
f 253/1/5 252/1/5 251/1/5
f 254/1/5 252/1/5 253/1/5
f 255/1/5 253/1/5 247/1/5
f 255/2/5 254/2/5 253/2/5
f 256/2/5 254/2/5 255/2/5
f 257/1/5 255/1/5 247/1/5
f 257/1/5 256/1/5 255/1/5
f 258/1/5 256/1/5 257/1/5
f 259/1/5 256/1/5 258/1/5
f 260/1/5 256/1/5 259/1/5
f 261/2/5 258/2/5 257/2/5
f 262/1/5 259/1/5 258/1/5
f 262/2/5 258/2/5 261/2/5
f 263/2/5 260/2/5 259/2/5
f 263/1/5 259/1/5 262/1/5
f 264/2/5 260/2/5 263/2/5
f 265/1/5 262/1/5 261/1/5
f 265/1/5 263/1/5 262/1/5
f 265/1/5 264/1/5 263/1/5
f 266/1/5 264/1/5 265/1/5
f 267/2/5 266/2/5 265/2/5
f 268/1/5 264/1/5 266/1/5
f 268/2/5 266/2/5 267/2/5
f 269/1/5 268/1/5 267/1/5
f 269/1/5 264/1/5 268/1/5
f 270/1/5 264/1/5 269/1/5
f 271/1/5 269/1/5 267/1/5
f 271/2/5 270/2/5 269/2/5
f 272/2/5 270/2/5 271/2/5
f 273/1/5 271/1/5 267/1/5
f 273/1/5 272/1/5 271/1/5
f 274/1/5 272/1/5 273/1/5
f 275/2/5 274/2/5 273/2/5
f 276/1/5 272/1/5 274/1/5
f 276/2/5 274/2/5 275/2/5
f 277/1/5 276/1/5 275/1/5
f 278/1/5 272/1/5 276/1/5
f 278/1/5 276/1/5 277/1/5
f 283/3/5 280/3/5 279/3/5
f 284/3/5 283/3/5 279/3/5
f 285/3/5 282/3/5 281/3/5
f 286/3/5 284/3/5 279/3/5
f 287/3/5 282/3/5 285/3/5
f 288/3/5 286/3/5 279/3/5
f 289/3/5 288/3/5 279/3/5
f 290/3/5 282/3/5 287/3/5
f 291/3/5 289/3/5 279/3/5
f 292/3/5 282/3/5 290/3/5
f 293/3/5 291/3/5 279/3/5
f 294/3/5 293/3/5 279/3/5
f 295/3/5 282/3/5 292/3/5
f 296/3/5 282/3/5 295/3/5
f 297/3/5 294/3/5 279/3/5
f 298/3/5 297/3/5 279/3/5
f 299/3/5 282/3/5 296/3/5
f 300/3/5 298/3/5 279/3/5
f 301/3/5 282/3/5 299/3/5
f 302/3/5 300/3/5 279/3/5
f 303/3/5 302/3/5 279/3/5
f 304/3/5 303/3/5 279/3/5
f 305/3/5 304/3/5 279/3/5
f 306/3/5 304/3/5 305/3/5
f 307/3/5 282/3/5 301/3/5
f 308/3/5 282/3/5 307/3/5
f 309/3/6 310/3/6 311/3/6
f 311/3/6 310/3/6 312/3/6
